<svg id="svg" version="1.1" xmlns="http://www.w3.org/2000/svg" xmlns:xlink="http://www.w3.org/1999/xlink" width="400" height="400" viewBox="0, 0, 400,400"><g id="svgg"><path id="path0" d="M185.465 50.658 C 185.061 51.200,184.831 51.903,184.953 52.221 C 185.075 52.540,185.020 52.800,184.830 52.800 C 184.255 52.800,183.974 54.026,184.387 54.734 C 184.708 55.284,184.778 55.212,184.788 54.324 C 184.795 53.732,184.980 53.136,185.200 53.000 C 185.420 52.864,185.600 52.328,185.600 51.810 C 185.600 51.291,185.807 50.798,186.060 50.713 C 186.313 50.629,186.448 50.361,186.360 50.117 C 186.272 49.873,185.869 50.117,185.465 50.658 M215.200 51.539 C 215.200 52.018,215.368 52.723,215.574 53.105 C 215.779 53.487,216.183 54.385,216.471 55.100 C 216.760 55.815,217.131 56.400,217.298 56.400 C 217.795 56.400,217.640 55.731,217.024 55.220 C 216.707 54.957,216.537 54.508,216.647 54.222 C 216.756 53.937,216.611 53.455,216.323 53.152 C 216.035 52.848,215.738 52.240,215.662 51.800 C 215.465 50.661,215.200 50.511,215.200 51.539 M217.600 57.510 C 217.600 57.973,217.780 58.464,218.000 58.600 C 218.220 58.736,218.400 59.207,218.400 59.647 C 218.400 60.087,218.559 60.349,218.754 60.228 C 218.953 60.106,218.897 59.394,218.629 58.612 C 218.029 56.867,217.600 56.408,217.600 57.510 M181.732 59.767 C 181.852 60.079,181.679 60.437,181.349 60.564 C 181.019 60.691,180.845 60.949,180.962 61.138 C 181.079 61.327,180.930 61.816,180.632 62.224 C 180.078 62.982,180.199 64.000,180.843 64.000 C 181.039 64.000,181.200 63.678,181.200 63.285 C 181.200 62.891,181.560 61.863,182.000 61.000 C 182.961 59.115,182.954 59.200,182.157 59.200 C 181.767 59.200,181.600 59.423,181.732 59.767 M219.038 61.138 C 218.903 61.357,219.064 61.807,219.396 62.139 C 219.728 62.471,220.000 63.026,220.000 63.371 C 220.000 63.717,220.174 64.000,220.387 64.000 C 220.787 64.000,220.596 63.284,219.763 61.670 C 219.500 61.159,219.173 60.919,219.038 61.138 M179.494 64.639 C 179.363 64.771,179.343 65.107,179.451 65.387 C 179.558 65.668,179.380 65.999,179.054 66.124 C 178.698 66.260,178.543 66.662,178.666 67.130 C 178.778 67.559,178.674 68.031,178.435 68.178 C 177.889 68.516,177.862 69.600,178.400 69.600 C 178.620 69.600,178.800 69.328,178.800 68.995 C 178.800 68.407,178.967 67.982,179.938 66.105 C 180.642 64.743,180.352 63.782,179.494 64.639 M220.400 65.213 C 220.400 65.439,220.650 65.721,220.956 65.838 C 221.262 65.956,221.426 66.379,221.321 66.781 C 221.216 67.182,221.326 67.631,221.565 67.778 C 221.804 67.926,222.000 68.397,222.000 68.824 C 222.000 69.251,222.180 69.600,222.400 69.600 C 222.620 69.600,222.800 69.150,222.800 68.600 C 222.800 68.050,222.609 67.600,222.376 67.600 C 222.143 67.600,222.063 67.422,222.198 67.204 C 222.333 66.986,222.118 66.361,221.721 65.816 C 220.963 64.775,220.400 64.517,220.400 65.213 M177.102 70.900 C 176.720 71.483,176.189 72.779,175.921 73.780 C 175.653 74.781,175.291 75.600,175.117 75.600 C 174.943 75.600,174.800 75.960,174.800 76.400 C 174.800 76.840,174.620 77.200,174.400 77.200 C 174.180 77.200,174.000 77.841,174.000 78.624 C 174.000 79.407,173.856 79.958,173.680 79.849 C 173.504 79.741,173.131 80.019,172.851 80.468 C 172.569 80.918,172.533 81.165,172.770 81.018 C 173.009 80.871,173.200 81.041,173.200 81.400 C 173.200 81.756,173.056 81.958,172.880 81.849 C 172.704 81.741,172.331 82.019,172.051 82.468 C 171.769 82.918,171.733 83.165,171.970 83.018 C 172.655 82.595,172.467 83.244,171.700 83.953 C 170.980 84.618,170.697 85.300,170.653 86.471 C 170.640 86.839,170.487 87.054,170.314 86.947 C 170.141 86.840,170.000 87.123,170.000 87.576 C 170.000 88.029,169.820 88.400,169.600 88.400 C 169.380 88.400,169.200 88.749,169.200 89.176 C 169.200 89.603,169.020 90.064,168.800 90.200 C 168.580 90.336,168.400 90.797,168.400 91.224 C 168.400 91.651,168.250 92.000,168.067 92.000 C 167.883 92.000,167.703 92.270,167.667 92.600 C 167.630 92.930,167.570 93.470,167.533 93.800 C 167.497 94.130,167.317 94.400,167.133 94.400 C 166.950 94.400,166.800 94.745,166.800 95.167 C 166.800 95.588,166.575 96.024,166.300 96.135 C 165.953 96.275,165.980 96.346,166.389 96.368 C 166.795 96.390,166.701 96.594,166.089 97.023 C 165.600 97.365,165.200 97.825,165.200 98.045 C 165.200 98.265,164.666 99.522,164.012 100.838 C 163.359 102.155,163.044 103.121,163.312 102.986 C 163.581 102.851,163.511 102.980,163.158 103.272 C 162.805 103.564,162.377 104.252,162.206 104.802 C 162.036 105.351,161.481 106.627,160.973 107.637 C 160.465 108.648,159.994 109.998,159.925 110.637 C 159.856 111.277,159.503 112.075,159.140 112.412 C 158.777 112.749,158.419 113.559,158.343 114.212 C 158.268 114.865,157.890 115.691,157.503 116.047 C 157.116 116.403,156.800 117.168,156.800 117.747 C 156.800 118.326,156.620 118.800,156.400 118.800 C 156.180 118.800,156.000 119.145,156.000 119.567 C 156.000 119.988,155.823 120.393,155.607 120.467 C 155.391 120.540,155.151 121.140,155.074 121.800 C 154.997 122.460,154.553 123.617,154.088 124.372 C 153.622 125.126,153.331 125.889,153.441 126.067 C 153.551 126.244,153.289 126.768,152.858 127.229 C 152.428 127.691,151.962 128.678,151.822 129.422 C 151.683 130.166,151.294 131.049,150.958 131.385 C 150.622 131.721,150.331 132.537,150.312 133.198 C 150.294 133.859,150.126 134.400,149.939 134.400 C 149.753 134.400,149.600 134.850,149.600 135.400 C 149.600 135.950,149.420 136.400,149.200 136.400 C 148.980 136.400,148.800 136.760,148.800 137.200 C 148.800 137.640,148.620 138.000,148.400 138.000 C 148.180 138.000,148.000 138.265,148.000 138.588 C 148.000 138.911,147.640 139.817,147.200 140.600 C 146.760 141.383,146.400 142.299,146.400 142.636 C 146.400 142.972,146.220 143.136,146.000 143.000 C 145.780 142.864,145.600 143.087,145.600 143.496 C 145.600 143.905,145.421 144.419,145.202 144.638 C 144.984 144.856,144.764 145.522,144.715 146.118 C 144.666 146.713,144.485 147.200,144.313 147.200 C 144.141 147.200,144.000 147.650,144.000 148.200 C 144.000 148.750,143.837 149.200,143.637 149.200 C 143.438 149.200,143.359 149.522,143.462 149.916 C 143.568 150.321,143.292 150.955,142.825 151.378 C 142.299 151.853,142.000 152.618,142.000 153.486 C 142.000 154.291,141.837 154.746,141.600 154.600 C 141.368 154.457,141.200 154.847,141.200 155.530 C 141.200 156.411,140.974 156.769,140.300 156.953 C 139.538 157.162,139.492 157.266,140.000 157.630 C 140.452 157.955,140.476 158.111,140.100 158.264 C 139.825 158.375,139.600 158.732,139.600 159.057 C 139.600 159.382,139.420 159.536,139.200 159.400 C 138.980 159.264,138.800 159.513,138.800 159.953 C 138.800 160.393,138.620 160.864,138.400 161.000 C 138.180 161.136,138.000 161.597,138.000 162.024 C 138.000 162.451,137.820 162.800,137.600 162.800 C 137.380 162.800,137.203 163.115,137.206 163.500 C 137.211 164.098,137.269 164.113,137.600 163.600 C 137.813 163.270,137.991 163.168,137.994 163.374 C 137.997 163.580,137.609 164.165,137.130 164.674 C 136.623 165.214,136.468 165.600,136.759 165.600 C 137.107 165.600,137.073 165.784,136.646 166.212 C 136.305 166.552,136.143 167.128,136.281 167.512 C 136.416 167.890,136.382 168.068,136.203 167.906 C 135.863 167.598,134.830 168.712,134.819 169.400 C 134.815 169.620,134.987 169.530,135.200 169.200 C 135.413 168.870,135.585 168.780,135.581 169.000 C 135.578 169.220,135.316 169.742,135.000 170.159 C 134.684 170.576,134.520 171.071,134.636 171.259 C 134.752 171.447,134.657 171.600,134.424 171.600 C 134.191 171.600,134.000 171.960,134.000 172.400 C 134.000 172.840,133.820 173.200,133.600 173.200 C 133.380 173.200,133.200 173.470,133.200 173.800 C 133.200 174.130,133.020 174.400,132.800 174.400 C 132.580 174.400,132.400 174.657,132.400 174.971 C 132.400 175.286,132.175 175.781,131.900 176.071 C 131.625 176.362,131.190 177.050,130.933 177.600 C 130.676 178.150,129.987 179.621,129.401 180.869 C 128.816 182.117,128.281 183.640,128.214 184.254 C 128.147 184.867,127.891 185.436,127.646 185.518 C 127.401 185.600,127.200 185.886,127.200 186.154 C 127.200 186.863,126.251 188.793,125.900 188.797 C 125.735 188.799,125.600 189.124,125.600 189.520 C 125.600 189.916,125.377 190.463,125.103 190.737 C 124.714 191.126,124.712 191.298,125.094 191.535 C 125.449 191.754,125.366 191.992,124.791 192.406 C 124.356 192.720,124.000 193.297,124.000 193.688 C 124.000 194.080,123.820 194.400,123.600 194.400 C 123.380 194.400,123.200 194.724,123.200 195.120 C 123.200 195.516,122.984 196.056,122.720 196.320 C 122.347 196.693,122.347 196.800,122.720 196.800 C 122.984 196.800,123.200 197.081,123.200 197.424 C 123.200 197.767,123.028 197.941,122.818 197.811 C 122.288 197.484,121.062 199.454,121.427 200.044 C 121.599 200.323,121.555 200.419,121.320 200.274 C 121.098 200.137,120.711 200.478,120.458 201.031 C 119.894 202.270,119.852 203.247,120.400 202.400 C 120.714 201.913,120.789 201.968,120.794 202.687 C 120.799 203.363,120.633 203.515,120.100 203.324 C 119.715 203.186,119.521 203.207,119.669 203.372 C 119.817 203.536,119.406 204.508,118.757 205.532 C 118.108 206.555,117.762 207.454,117.989 207.530 C 118.215 207.605,118.400 208.006,118.400 208.421 C 118.400 208.909,118.199 209.098,117.831 208.956 C 117.505 208.831,117.071 209.093,116.817 209.569 C 116.572 210.026,116.472 210.400,116.595 210.400 C 116.718 210.400,116.525 210.849,116.165 211.397 C 115.802 211.951,115.629 212.699,115.776 213.080 C 115.943 213.518,115.757 213.991,115.264 214.384 C 114.281 215.166,112.723 218.705,113.226 219.016 C 113.858 219.406,113.640 220.101,112.967 219.843 C 112.566 219.689,112.394 219.782,112.499 220.096 C 112.590 220.369,112.423 220.834,112.128 221.129 C 111.834 221.423,111.695 221.830,111.820 222.032 C 111.945 222.235,111.890 222.400,111.698 222.400 C 111.505 222.400,111.048 223.030,110.681 223.800 C 110.313 224.570,110.190 225.200,110.406 225.200 C 111.046 225.200,110.858 225.942,110.000 226.800 C 109.560 227.240,109.200 227.870,109.200 228.200 C 109.200 228.530,108.999 228.800,108.753 228.800 C 108.508 228.800,108.398 229.148,108.509 229.574 C 108.623 230.011,108.479 230.437,108.178 230.553 C 107.856 230.677,107.717 231.152,107.826 231.757 C 107.953 232.454,107.704 233.060,107.004 233.760 C 106.452 234.312,106.000 235.132,106.000 235.582 C 106.000 236.032,105.820 236.400,105.600 236.400 C 105.380 236.400,105.200 236.771,105.200 237.224 C 105.200 237.677,105.378 237.937,105.595 237.803 C 105.822 237.663,105.889 237.823,105.753 238.179 C 105.622 238.521,105.264 238.800,104.957 238.800 C 104.651 238.800,104.400 239.055,104.400 239.367 C 104.400 239.678,104.212 239.996,103.982 240.073 C 103.752 240.149,103.534 240.614,103.497 241.106 C 103.460 241.598,103.267 242.000,103.068 242.000 C 102.869 242.000,102.795 242.460,102.902 243.023 C 103.010 243.587,102.861 244.281,102.570 244.573 C 101.512 245.631,100.464 247.941,100.577 248.967 C 100.640 249.546,100.536 250.116,100.346 250.233 C 100.156 250.351,99.999 250.212,99.998 249.924 C 99.996 249.636,99.726 249.916,99.398 250.546 C 99.069 251.176,98.800 251.941,98.800 252.246 C 98.800 252.551,98.641 252.800,98.447 252.800 C 97.910 252.800,97.638 254.278,98.091 254.731 C 98.583 255.223,98.153 256.000,97.389 256.000 C 97.027 256.000,96.917 256.239,97.081 256.666 C 97.239 257.079,97.176 257.233,96.914 257.071 C 96.537 256.837,96.142 257.546,95.450 259.700 C 95.326 260.085,95.414 260.400,95.646 260.400 C 95.877 260.400,95.988 260.625,95.892 260.900 C 95.796 261.175,95.396 261.341,95.004 261.270 C 94.510 261.180,94.362 261.323,94.520 261.737 C 94.646 262.065,94.491 262.433,94.175 262.554 C 93.859 262.676,93.600 263.130,93.600 263.564 C 93.600 263.998,93.417 264.466,93.193 264.604 C 92.970 264.742,92.898 265.035,93.034 265.254 C 93.169 265.474,92.947 265.925,92.540 266.256 C 92.133 266.588,92.025 266.745,92.300 266.606 C 92.843 266.331,92.987 266.880,92.500 267.367 C 92.216 267.650,92.171 267.796,92.050 268.824 C 92.023 269.057,91.820 269.136,91.600 269.000 C 91.380 268.864,91.200 269.018,91.200 269.343 C 91.200 269.668,90.975 270.009,90.700 270.102 C 90.302 270.236,90.304 270.395,90.708 270.886 C 91.134 271.402,91.085 271.537,90.408 271.714 C 89.859 271.857,89.600 272.258,89.600 272.963 C 89.600 273.533,89.420 274.000,89.200 274.000 C 88.980 274.000,88.800 274.360,88.800 274.800 C 88.800 275.240,88.620 275.600,88.400 275.600 C 88.180 275.600,88.000 275.949,88.000 276.376 C 88.000 276.803,87.804 277.274,87.565 277.422 C 87.326 277.569,87.216 278.018,87.321 278.419 C 87.426 278.820,87.243 279.532,86.915 280.000 C 86.273 280.917,86.270 280.905,87.270 281.441 C 87.639 281.638,89.490 283.960,91.383 286.600 C 95.297 292.057,97.084 294.528,100.204 298.800 C 101.409 300.450,102.821 302.430,103.342 303.200 C 103.862 303.970,105.402 306.130,106.762 308.000 C 108.123 309.870,109.980 312.480,110.888 313.800 C 111.797 315.120,112.655 316.290,112.796 316.400 C 112.937 316.510,113.664 317.500,114.410 318.600 C 115.774 320.610,117.576 323.085,119.434 325.500 C 121.306 327.933,123.600 326.973,123.600 323.756 C 123.600 323.047,123.792 322.798,124.273 322.882 C 124.703 322.958,125.050 322.638,125.234 322.000 C 125.391 321.450,125.538 321.142,125.560 321.316 C 125.582 321.489,125.851 321.399,126.158 321.116 C 126.465 320.832,126.643 320.480,126.554 320.332 C 126.465 320.185,126.664 319.793,126.996 319.461 C 127.328 319.129,127.600 318.471,127.600 317.999 C 127.600 317.394,127.806 317.184,128.300 317.286 C 129.230 317.478,130.800 315.366,130.800 313.922 C 130.800 312.776,131.368 312.400,131.740 313.300 C 131.863 313.598,132.060 313.423,132.229 312.866 C 132.440 312.166,132.596 312.066,132.849 312.466 C 133.102 312.865,133.189 312.806,133.194 312.233 C 133.197 311.812,133.294 311.560,133.408 311.675 C 133.684 311.951,139.799 305.896,139.676 305.470 C 139.623 305.289,139.738 305.238,139.932 305.358 C 140.125 305.478,140.701 305.131,141.212 304.588 C 141.722 304.044,142.288 303.600,142.471 303.600 C 142.653 303.600,143.386 303.004,144.101 302.276 C 144.815 301.547,145.940 300.619,146.600 300.213 C 147.260 299.807,147.937 299.245,148.105 298.964 C 148.272 298.684,149.352 297.992,150.505 297.428 C 151.657 296.863,153.118 295.955,153.752 295.409 C 154.386 294.864,155.061 294.514,155.252 294.632 C 155.443 294.750,155.600 294.701,155.600 294.521 C 155.600 294.342,156.164 293.946,156.852 293.641 C 157.541 293.336,158.192 292.752,158.299 292.343 C 158.406 291.935,158.663 291.600,158.870 291.600 C 159.078 291.600,159.122 291.803,158.968 292.052 C 158.654 292.560,158.593 292.581,161.600 291.147 C 162.810 290.570,165.195 289.602,166.900 288.995 C 168.605 288.389,170.000 287.718,170.000 287.504 C 170.000 287.290,170.270 287.218,170.600 287.345 C 170.930 287.471,171.200 287.386,171.200 287.154 C 171.200 286.923,171.425 286.815,171.700 286.915 C 171.975 287.014,172.807 286.849,173.549 286.548 C 174.291 286.247,175.224 286.000,175.623 286.000 C 176.022 286.000,176.855 285.795,177.474 285.545 C 178.093 285.295,179.230 285.016,180.000 284.924 C 180.770 284.833,181.580 284.561,181.800 284.320 C 182.081 284.012,182.022 283.977,181.600 284.200 C 181.090 284.470,181.083 284.433,181.550 283.959 C 181.978 283.524,182.141 283.512,182.284 283.902 C 182.385 284.179,182.671 284.280,182.919 284.126 C 183.167 283.973,183.941 283.886,184.638 283.933 C 185.530 283.993,185.987 283.811,186.175 283.321 C 186.351 282.861,186.538 282.776,186.722 283.071 C 187.160 283.776,192.382 283.113,192.995 282.274 C 193.655 281.371,194.870 281.390,194.718 282.300 C 194.627 282.838,194.831 282.969,195.600 282.866 C 199.733 282.310,203.499 282.237,204.475 282.693 C 206.188 283.493,207.758 283.237,206.907 282.297 C 206.285 281.610,206.292 281.583,207.022 281.854 C 207.450 282.012,207.914 282.312,208.054 282.520 C 208.194 282.729,209.313 282.957,210.540 283.028 C 211.768 283.099,213.138 283.353,213.586 283.593 C 214.208 283.925,214.401 283.907,214.406 283.514 C 214.410 283.160,214.504 283.138,214.706 283.442 C 214.868 283.685,215.900 284.011,217.000 284.166 C 221.011 284.729,222.045 284.931,222.600 285.258 C 223.165 285.592,227.334 286.581,227.722 286.474 C 227.899 286.425,228.434 286.659,228.911 286.993 C 229.388 287.327,229.963 287.597,230.189 287.594 C 230.415 287.591,230.330 287.413,230.000 287.200 C 229.633 286.963,229.586 286.810,229.880 286.806 C 230.144 286.803,230.504 287.045,230.680 287.343 C 230.992 287.873,233.902 289.045,234.500 288.882 C 234.665 288.837,234.800 289.001,234.800 289.247 C 234.800 289.494,235.151 289.601,235.585 289.488 C 236.017 289.375,236.582 289.537,236.840 289.849 C 237.099 290.160,237.960 290.697,238.755 291.041 C 240.274 291.699,240.856 291.996,243.067 293.238 C 243.814 293.657,244.824 294.003,245.312 294.006 C 245.874 294.010,246.024 294.124,245.720 294.317 C 245.403 294.519,245.675 294.815,246.520 295.189 C 247.224 295.501,248.142 296.074,248.561 296.464 C 248.979 296.854,249.461 297.086,249.633 296.980 C 249.804 296.874,250.060 296.973,250.200 297.200 C 250.340 297.427,250.602 297.522,250.782 297.411 C 250.962 297.300,251.203 297.567,251.317 298.004 C 251.431 298.442,251.812 298.800,252.163 298.800 C 252.513 298.800,252.800 298.991,252.800 299.224 C 252.800 299.457,252.981 299.535,253.203 299.398 C 253.424 299.261,253.714 299.431,253.846 299.775 C 253.978 300.119,254.270 300.400,254.496 300.400 C 254.722 300.400,255.197 300.715,255.553 301.100 C 255.909 301.485,257.370 302.815,258.800 304.056 C 260.230 305.297,262.153 307.034,263.074 307.915 C 263.995 308.797,264.850 309.417,264.974 309.293 C 265.098 309.168,265.200 309.367,265.200 309.733 C 265.200 310.341,265.665 310.588,266.530 310.437 C 266.711 310.406,266.757 310.546,266.631 310.750 C 266.355 311.196,269.929 315.046,270.475 314.890 C 270.686 314.830,270.744 314.966,270.604 315.194 C 270.339 315.622,271.749 317.717,272.080 317.387 C 272.182 317.285,272.506 317.651,272.800 318.201 C 273.094 318.750,273.495 319.200,273.691 319.200 C 273.887 319.200,273.949 319.360,273.828 319.555 C 273.707 319.750,273.877 320.132,274.204 320.404 C 274.532 320.676,274.800 321.146,274.800 321.449 C 274.800 321.752,275.179 322.000,275.643 322.000 C 276.237 322.000,276.416 322.182,276.250 322.615 C 276.115 322.965,276.269 323.328,276.607 323.458 C 276.933 323.583,277.200 323.857,277.200 324.066 C 277.200 324.276,276.975 324.312,276.700 324.147 C 276.356 323.940,276.370 324.056,276.745 324.519 C 277.045 324.889,277.455 325.090,277.655 324.966 C 277.856 324.842,277.987 324.889,277.946 325.070 C 277.906 325.252,278.008 325.760,278.174 326.200 C 278.340 326.640,278.660 327.495,278.886 328.100 C 279.112 328.705,279.455 329.200,279.649 329.200 C 279.842 329.200,280.000 329.560,280.000 330.000 C 280.000 330.440,280.180 330.800,280.400 330.800 C 280.620 330.800,280.800 331.036,280.800 331.325 C 280.800 331.613,281.155 332.230,281.588 332.695 C 282.143 333.290,282.232 333.600,281.888 333.739 C 281.512 333.891,281.515 333.944,281.900 333.968 C 282.175 333.986,282.400 334.360,282.400 334.800 C 282.400 335.240,282.580 335.600,282.800 335.600 C 283.020 335.600,283.200 335.962,283.200 336.405 C 283.200 336.848,283.380 337.568,283.600 338.005 C 283.820 338.442,284.180 339.158,284.400 339.595 C 284.620 340.032,284.800 340.662,284.800 340.995 C 284.800 341.328,284.980 341.600,285.200 341.600 C 285.420 341.600,285.600 342.140,285.600 342.800 C 285.600 343.460,285.780 344.000,286.000 344.000 C 286.220 344.000,286.400 344.540,286.400 345.200 C 286.400 345.860,286.580 346.400,286.800 346.400 C 287.020 346.400,287.200 346.760,287.200 347.200 C 287.200 347.640,287.425 348.003,287.700 348.006 C 288.033 348.010,288.000 348.142,287.600 348.400 C 287.200 348.658,287.167 348.790,287.500 348.794 C 287.775 348.797,288.000 349.235,288.000 349.767 C 288.000 350.298,288.225 350.824,288.500 350.935 C 288.900 351.096,288.900 351.143,288.500 351.168 C 287.975 351.202,287.781 352.398,288.300 352.403 C 288.659 352.407,289.600 354.344,289.600 355.080 C 289.600 355.366,289.384 355.600,289.120 355.600 C 288.747 355.600,288.747 355.707,289.120 356.080 C 289.384 356.344,289.600 356.884,289.600 357.280 C 289.600 357.676,289.780 358.000,290.000 358.000 C 290.220 358.000,290.400 358.551,290.400 359.224 C 290.400 359.937,290.233 360.344,290.000 360.200 C 289.469 359.872,289.486 360.526,290.022 361.062 C 290.254 361.294,290.464 362.905,290.488 364.642 C 290.512 366.379,290.634 367.350,290.760 366.800 C 290.893 366.216,291.074 367.132,291.194 369.000 L 291.400 372.200 322.000 372.200 L 352.600 372.200 352.723 370.500 C 352.796 369.494,352.673 368.800,352.423 368.800 C 352.190 368.800,352.000 368.429,352.000 367.976 C 352.000 367.449,351.831 367.257,351.532 367.442 C 351.219 367.635,351.147 367.515,351.315 367.077 C 351.453 366.717,351.304 366.161,350.983 365.840 C 350.269 365.126,350.219 364.649,350.900 365.041 C 351.175 365.199,350.950 364.821,350.400 364.200 C 349.850 363.579,349.660 363.223,349.979 363.408 C 350.297 363.593,350.127 363.139,349.600 362.400 C 349.073 361.661,348.903 361.204,349.221 361.386 C 349.691 361.655,349.706 361.616,349.300 361.179 C 349.025 360.882,348.800 360.316,348.800 359.920 C 348.800 359.524,348.620 359.200,348.400 359.200 C 348.180 359.200,348.000 358.919,348.000 358.576 C 348.000 358.233,347.865 358.036,347.700 358.138 C 347.535 358.240,347.372 357.851,347.337 357.274 C 347.302 356.697,347.077 356.159,346.837 356.079 C 346.597 355.999,346.400 355.408,346.400 354.767 C 346.400 354.125,346.220 353.600,346.000 353.600 C 345.780 353.600,345.600 353.251,345.600 352.824 C 345.600 352.397,345.420 351.936,345.200 351.800 C 344.980 351.664,344.800 351.193,344.800 350.753 C 344.800 350.313,344.620 350.064,344.400 350.200 C 344.025 350.432,343.823 349.633,343.970 348.500 C 344.006 348.225,343.847 348.000,343.618 348.000 C 343.388 348.000,343.200 347.728,343.200 347.395 C 343.200 347.062,343.043 346.477,342.850 346.095 C 341.352 343.120,340.800 341.847,340.800 341.362 C 340.800 341.053,340.620 340.800,340.400 340.800 C 340.180 340.800,340.000 340.448,340.000 340.019 C 340.000 339.030,339.179 337.200,338.736 337.200 C 338.551 337.200,338.400 336.838,338.400 336.395 C 338.400 335.529,337.652 333.985,337.000 333.506 C 336.780 333.344,336.757 333.209,336.949 333.206 C 337.141 333.203,337.074 332.930,336.800 332.600 C 336.526 332.270,336.459 331.995,336.651 331.988 C 336.843 331.981,336.681 331.790,336.292 331.563 C 335.902 331.336,335.674 331.004,335.785 330.823 C 335.897 330.643,335.541 329.655,334.994 328.627 C 334.447 327.599,334.000 326.507,334.000 326.202 C 334.000 325.896,333.595 325.346,333.100 324.981 C 332.493 324.533,332.364 324.254,332.703 324.124 C 333.072 323.983,332.993 323.632,332.403 322.804 C 331.961 322.184,331.600 321.479,331.600 321.238 C 331.600 320.997,331.375 320.797,331.100 320.794 C 330.703 320.789,330.703 320.722,331.103 320.468 C 331.490 320.223,331.384 319.708,330.645 318.249 C 330.085 317.143,329.596 316.569,329.473 316.875 C 329.358 317.164,329.249 316.804,329.232 316.076 C 329.210 315.183,329.050 314.846,328.738 315.038 C 328.444 315.220,328.385 315.147,328.577 314.837 C 328.747 314.561,328.557 313.983,328.139 313.506 C 327.733 313.042,327.625 312.794,327.900 312.955 C 328.175 313.116,328.400 313.057,328.400 312.824 C 328.400 312.591,328.220 312.400,328.000 312.400 C 327.780 312.400,327.600 312.055,327.600 311.633 C 327.600 311.212,327.412 310.804,327.182 310.727 C 326.952 310.651,326.735 310.198,326.699 309.722 C 326.663 309.245,326.491 308.944,326.317 309.051 C 326.143 309.159,326.000 308.877,326.000 308.424 C 326.000 307.971,325.775 307.597,325.500 307.594 C 325.167 307.590,325.200 307.458,325.600 307.200 C 326.000 306.942,326.033 306.810,325.700 306.806 C 325.425 306.803,325.200 306.429,325.200 305.976 C 325.200 305.456,325.030 305.258,324.738 305.438 C 324.459 305.611,324.385 305.548,324.551 305.279 C 324.702 305.035,324.521 304.152,324.149 303.318 C 323.777 302.483,323.453 301.710,323.430 301.600 C 323.407 301.490,323.216 301.130,323.005 300.800 C 322.795 300.470,322.568 299.840,322.500 299.400 C 322.432 298.960,322.202 298.540,321.988 298.467 C 321.775 298.393,321.600 297.888,321.600 297.343 C 321.600 296.798,321.443 296.450,321.250 296.569 C 321.058 296.688,320.900 296.348,320.900 295.814 C 320.900 295.280,320.615 294.558,320.267 294.210 C 319.915 293.858,319.745 293.287,319.885 292.923 C 320.053 292.485,319.981 292.365,319.668 292.558 C 319.349 292.755,319.200 292.450,319.200 291.600 C 319.200 290.870,319.034 290.455,318.800 290.600 C 318.580 290.736,318.400 290.497,318.400 290.069 C 318.400 289.184,316.115 284.118,315.562 283.777 C 315.363 283.654,315.200 283.023,315.200 282.376 C 315.200 281.729,315.020 281.200,314.800 281.200 C 314.580 281.200,314.400 280.772,314.400 280.249 C 314.400 279.726,314.141 279.083,313.824 278.820 C 313.507 278.557,313.346 278.085,313.467 277.771 C 313.587 277.457,313.486 277.200,313.243 277.200 C 312.999 277.200,312.800 276.880,312.800 276.488 C 312.800 276.097,312.440 275.517,312.000 275.200 C 311.224 274.641,310.833 273.726,311.563 274.177 C 311.762 274.300,311.717 273.952,311.463 273.404 C 311.208 272.855,310.865 272.405,310.700 272.403 C 310.535 272.401,310.400 271.860,310.400 271.200 C 310.400 270.540,310.220 270.000,310.000 270.000 C 309.780 270.000,309.600 269.730,309.600 269.400 C 309.600 269.070,309.459 268.800,309.287 268.800 C 309.115 268.800,308.934 268.305,308.884 267.700 C 308.834 267.095,308.615 266.540,308.397 266.467 C 308.178 266.393,308.000 266.076,308.000 265.761 C 308.000 265.447,307.820 264.877,307.600 264.495 C 306.901 263.282,305.467 259.812,305.535 259.500 C 305.571 259.335,305.420 259.200,305.200 259.200 C 304.980 259.200,304.800 258.846,304.800 258.412 C 304.800 257.442,303.253 254.400,302.760 254.400 C 302.562 254.400,302.421 254.265,302.447 254.100 C 302.554 253.425,302.382 252.803,302.100 252.847 C 301.315 252.971,301.146 252.747,301.606 252.192 C 302.015 251.699,301.998 251.454,301.513 250.892 C 301.185 250.512,300.666 249.615,300.361 248.900 C 300.055 248.185,299.669 247.600,299.502 247.600 C 299.049 247.600,299.138 248.178,299.674 248.714 C 299.934 248.974,300.194 249.505,300.250 249.894 C 300.306 250.282,300.408 250.960,300.476 251.400 C 300.728 253.024,299.406 252.144,297.423 249.368 C 296.310 247.810,293.853 244.390,291.961 241.768 C 281.295 226.979,260.313 197.794,258.101 194.670 C 256.312 192.142,255.327 190.771,251.000 184.785 C 246.141 178.062,243.308 174.125,241.800 172.000 C 240.292 169.875,237.459 165.938,232.600 159.215 C 230.180 155.867,227.840 152.620,227.400 151.999 C 226.960 151.378,224.170 147.509,221.200 143.400 C 216.089 136.330,215.262 135.180,213.099 132.135 C 212.605 131.439,209.770 127.501,206.800 123.384 C 200.123 114.129,197.873 110.998,196.609 109.200 C 195.137 107.105,193.421 104.725,189.000 98.643 C 186.800 95.616,184.190 91.999,183.200 90.605 C 182.210 89.211,179.915 86.005,178.100 83.480 C 175.101 79.307,174.127 77.200,175.200 77.200 C 175.420 77.200,175.600 76.851,175.600 76.424 C 175.600 75.997,175.780 75.536,176.000 75.400 C 176.220 75.264,176.400 74.713,176.400 74.176 C 176.400 73.639,176.580 73.200,176.800 73.200 C 177.020 73.200,177.200 72.855,177.200 72.433 C 177.200 72.012,177.401 71.600,177.646 71.518 C 177.891 71.436,178.025 71.025,177.944 70.605 C 177.813 69.923,177.722 69.955,177.102 70.900 M222.800 70.605 C 222.800 70.718,222.957 71.123,223.150 71.505 C 224.714 74.611,225.200 75.779,225.200 76.438 C 225.200 76.857,225.380 77.200,225.600 77.200 C 225.820 77.200,226.000 77.472,226.000 77.805 C 226.000 78.138,226.168 78.723,226.374 79.105 C 226.579 79.487,226.983 80.385,227.271 81.100 C 227.560 81.815,227.931 82.400,228.098 82.400 C 228.264 82.400,228.400 82.850,228.400 83.400 C 228.400 83.950,228.580 84.400,228.800 84.400 C 229.390 84.400,228.651 81.317,227.874 80.541 C 227.723 80.390,227.600 79.937,227.600 79.533 C 227.600 79.130,227.465 78.799,227.300 78.797 C 226.894 78.793,226.000 76.814,226.000 75.920 C 226.000 75.524,225.820 75.200,225.600 75.200 C 225.380 75.200,225.200 74.848,225.200 74.419 C 225.200 73.430,224.379 71.600,223.936 71.600 C 223.751 71.600,223.600 71.330,223.600 71.000 C 223.600 70.670,223.420 70.400,223.200 70.400 C 222.980 70.400,222.800 70.492,222.800 70.605 M229.200 85.576 C 229.200 86.029,229.380 86.400,229.600 86.400 C 229.820 86.400,230.000 86.850,230.000 87.400 C 230.000 87.950,230.180 88.400,230.400 88.400 C 230.620 88.400,230.800 88.850,230.800 89.400 C 230.800 89.950,230.980 90.400,231.200 90.400 C 231.420 90.400,231.600 90.760,231.600 91.200 C 231.600 91.640,231.780 92.000,232.000 92.000 C 232.220 92.000,232.400 92.450,232.400 93.000 C 232.400 93.550,232.580 94.000,232.800 94.000 C 233.020 94.000,233.200 94.469,233.200 95.043 C 233.200 95.752,233.372 96.020,233.738 95.879 C 234.123 95.732,234.223 95.946,234.091 96.637 C 233.985 97.189,234.097 97.600,234.353 97.600 C 234.599 97.600,234.800 98.050,234.800 98.600 C 234.800 99.150,234.980 99.600,235.200 99.600 C 235.420 99.600,235.600 100.050,235.600 100.600 C 235.600 101.150,235.780 101.600,236.000 101.600 C 236.220 101.600,236.400 101.960,236.400 102.400 C 236.400 102.858,236.667 103.200,237.024 103.200 C 237.367 103.200,237.546 103.364,237.422 103.564 C 237.161 103.987,237.558 105.200,237.958 105.200 C 238.482 105.200,238.341 103.649,237.773 103.178 C 237.458 102.916,237.200 102.454,237.200 102.151 C 237.200 101.848,237.001 101.600,236.757 101.600 C 236.514 101.600,236.413 101.343,236.533 101.029 C 236.654 100.715,236.493 100.243,236.176 99.980 C 235.859 99.717,235.600 99.162,235.600 98.747 C 235.600 97.876,233.994 94.265,233.519 94.067 C 233.343 93.993,233.200 93.599,233.200 93.190 C 233.200 92.782,233.045 92.351,232.855 92.234 C 232.665 92.117,232.282 91.206,232.003 90.210 C 231.724 89.215,231.339 88.400,231.148 88.400 C 230.957 88.400,230.800 87.950,230.800 87.400 C 230.800 86.850,230.620 86.400,230.400 86.400 C 230.180 86.400,230.000 86.141,230.000 85.824 C 230.000 85.507,229.820 85.136,229.600 85.000 C 229.380 84.864,229.200 85.123,229.200 85.576 M238.403 105.989 C 237.928 106.290,237.908 106.468,238.303 106.863 C 238.690 107.250,238.907 107.253,239.280 106.880 C 239.653 106.507,239.648 106.400,239.256 106.400 C 238.979 106.400,238.864 106.220,239.000 106.000 C 239.305 105.506,239.171 105.504,238.403 105.989 M238.800 107.832 C 238.800 108.380,240.067 110.400,240.410 110.400 C 240.907 110.400,240.900 110.257,240.346 109.041 C 239.948 108.167,238.800 107.270,238.800 107.832 M241.600 113.800 C 241.600 114.350,241.780 114.800,242.000 114.800 C 242.220 114.800,242.400 115.160,242.400 115.600 C 242.400 116.040,242.580 116.400,242.800 116.400 C 243.020 116.400,243.200 116.051,243.200 115.624 C 243.200 115.197,243.020 114.736,242.800 114.600 C 242.580 114.464,242.400 114.003,242.400 113.576 C 242.400 113.149,242.220 112.800,242.000 112.800 C 241.780 112.800,241.600 113.250,241.600 113.800 M244.000 119.600 C 244.000 120.040,244.180 120.400,244.400 120.400 C 244.620 120.400,244.800 120.749,244.800 121.176 C 244.800 121.603,244.980 122.064,245.200 122.200 C 245.420 122.336,245.600 122.797,245.600 123.224 C 245.600 123.651,245.780 124.000,246.000 124.000 C 246.220 124.000,246.400 124.360,246.400 124.800 C 246.400 125.240,246.599 125.600,246.843 125.600 C 247.110 125.600,247.169 125.322,246.991 124.900 C 246.830 124.515,246.609 123.792,246.501 123.294 C 246.393 122.796,246.146 122.290,245.952 122.170 C 245.759 122.051,245.600 121.513,245.600 120.976 C 245.600 120.439,245.420 120.000,245.200 120.000 C 244.980 120.000,244.800 119.730,244.800 119.400 C 244.800 119.070,244.620 118.800,244.400 118.800 C 244.180 118.800,244.000 119.160,244.000 119.600 M247.200 126.800 C 247.200 127.240,247.380 127.600,247.600 127.600 C 247.820 127.600,248.000 128.050,248.000 128.600 C 248.000 129.150,248.180 129.600,248.400 129.600 C 248.620 129.600,248.800 130.086,248.800 130.680 C 248.800 131.433,248.927 131.633,249.219 131.341 C 249.511 131.049,249.494 130.570,249.163 129.761 C 247.545 125.811,247.200 125.290,247.200 126.800 M249.600 132.376 C 249.600 132.803,249.785 133.267,250.011 133.407 C 250.236 133.546,250.371 133.943,250.311 134.289 C 250.250 134.634,250.425 134.996,250.700 135.092 C 251.383 135.331,251.328 134.379,250.571 132.861 C 249.845 131.407,249.600 131.284,249.600 132.376 M251.041 135.933 C 250.905 136.154,251.064 136.607,251.396 136.939 C 251.728 137.271,252.000 137.836,252.000 138.195 C 252.000 138.554,252.173 138.740,252.385 138.609 C 252.626 138.460,252.597 137.965,252.309 137.286 C 251.689 135.824,251.339 135.451,251.041 135.933 M252.658 139.392 C 252.320 140.275,252.748 141.012,253.287 140.473 C 253.541 140.219,253.546 139.833,253.301 139.395 C 252.942 138.753,252.904 138.753,252.658 139.392 M253.200 141.505 C 253.200 142.274,254.477 144.400,254.814 144.191 C 255.243 143.926,254.860 142.800,254.340 142.800 C 254.134 142.800,254.018 142.504,254.082 142.141 C 254.147 141.779,253.975 141.404,253.700 141.308 C 253.425 141.212,253.200 141.301,253.200 141.505 M255.056 144.678 C 254.578 145.156,254.798 146.000,255.400 146.000 C 255.730 146.000,256.000 145.741,256.000 145.424 C 256.000 144.755,255.429 144.304,255.056 144.678 M255.600 146.943 C 255.600 147.278,255.780 147.664,256.000 147.800 C 256.220 147.936,256.400 148.487,256.400 149.024 C 256.400 149.561,256.580 150.000,256.800 150.000 C 257.020 150.000,257.200 150.375,257.200 150.833 C 257.200 151.327,257.404 151.595,257.700 151.492 C 258.251 151.299,258.143 149.879,257.561 149.666 C 257.360 149.592,257.288 149.382,257.401 149.198 C 257.515 149.015,257.332 148.590,256.997 148.254 C 256.661 147.918,256.434 147.431,256.493 147.171 C 256.552 146.912,256.375 146.618,256.100 146.517 C 255.825 146.416,255.600 146.608,255.600 146.943 M258.000 152.800 C 258.000 153.240,258.180 153.600,258.400 153.600 C 258.620 153.600,258.800 154.050,258.800 154.600 C 258.800 155.150,258.980 155.600,259.200 155.600 C 259.420 155.600,259.600 156.050,259.600 156.600 C 259.600 157.150,259.780 157.600,260.000 157.600 C 260.220 157.600,260.400 157.960,260.400 158.400 C 260.400 158.840,260.580 159.200,260.800 159.200 C 261.020 159.200,261.200 159.650,261.200 160.200 C 261.200 160.750,261.380 161.200,261.600 161.200 C 261.820 161.200,262.000 161.650,262.000 162.200 C 262.000 162.750,262.180 163.200,262.400 163.200 C 263.129 163.200,262.816 161.711,261.600 159.400 C 260.940 158.145,260.400 156.788,260.400 156.383 C 260.400 155.978,260.220 155.536,260.000 155.400 C 259.780 155.264,259.600 154.803,259.600 154.376 C 259.600 153.949,259.420 153.600,259.200 153.600 C 258.980 153.600,258.800 153.240,258.800 152.800 C 258.800 152.360,258.620 152.000,258.400 152.000 C 258.180 152.000,258.000 152.360,258.000 152.800 M263.100 163.029 C 262.660 163.476,262.734 164.800,263.200 164.800 C 263.420 164.800,263.600 165.250,263.600 165.800 C 263.600 166.350,263.780 166.800,264.000 166.800 C 264.220 166.800,264.400 167.250,264.400 167.800 C 264.400 168.350,264.580 168.800,264.800 168.800 C 265.020 168.800,265.200 169.160,265.200 169.600 C 265.200 170.040,265.380 170.400,265.600 170.400 C 265.820 170.400,266.000 170.051,266.000 169.624 C 266.000 169.197,265.820 168.736,265.600 168.600 C 265.380 168.464,265.200 168.003,265.200 167.576 C 265.200 167.149,265.020 166.800,264.800 166.800 C 264.580 166.800,264.400 166.476,264.400 166.080 C 264.400 165.684,264.235 165.189,264.034 164.980 C 263.832 164.771,263.607 164.178,263.534 163.662 C 263.460 163.146,263.265 162.861,263.100 163.029 M266.000 171.600 C 266.000 172.040,266.180 172.400,266.400 172.400 C 266.620 172.400,266.800 172.760,266.800 173.200 C 266.800 173.640,266.980 174.000,267.200 174.000 C 267.420 174.000,267.600 174.450,267.600 175.000 C 267.600 175.959,268.138 176.347,268.548 175.684 C 268.771 175.323,267.587 172.669,267.112 172.467 C 266.941 172.393,266.800 171.988,266.800 171.567 C 266.800 171.145,266.620 170.800,266.400 170.800 C 266.180 170.800,266.000 171.160,266.000 171.600 M268.400 177.224 C 268.400 177.677,268.580 177.936,268.800 177.800 C 269.020 177.664,269.200 177.293,269.200 176.976 C 269.200 176.659,269.020 176.400,268.800 176.400 C 268.580 176.400,268.400 176.771,268.400 177.224 M269.520 179.280 C 269.784 179.544,270.000 180.084,270.000 180.480 C 270.000 181.250,270.597 181.451,270.991 180.815 C 271.225 180.436,269.868 178.800,269.320 178.800 C 269.166 178.800,269.256 179.016,269.520 179.280 M270.800 182.573 C 270.800 182.888,271.184 183.268,271.653 183.417 C 272.220 183.597,272.348 183.785,272.034 183.979 C 271.689 184.192,271.731 184.411,272.191 184.792 C 273.167 185.603,273.305 185.041,272.517 183.459 C 271.798 182.015,270.800 181.500,270.800 182.573 M272.800 186.188 C 272.800 186.292,273.236 187.329,273.769 188.494 C 274.302 189.659,274.861 191.105,275.012 191.706 C 275.296 192.838,276.000 193.222,276.000 192.245 C 276.000 191.467,273.465 186.013,273.100 186.006 C 272.935 186.003,272.800 186.085,272.800 186.188 M201.400 188.818 C 203.766 188.875,204.287 188.974,203.400 189.200 C 202.232 189.497,203.685 189.676,207.500 189.703 C 207.995 189.707,208.400 189.858,208.400 190.039 C 208.400 190.221,209.112 190.561,209.982 190.795 C 210.852 191.029,211.829 191.486,212.153 191.811 C 212.478 192.135,213.236 192.400,213.838 192.400 C 214.440 192.400,214.822 192.511,214.686 192.648 C 214.431 192.902,215.338 194.000,215.803 194.000 C 215.946 194.000,216.747 194.712,217.583 195.582 C 218.419 196.452,219.194 197.073,219.306 196.961 C 219.417 196.849,219.881 197.360,220.336 198.097 C 221.421 199.852,222.632 201.234,222.874 200.993 C 222.980 200.887,223.067 201.067,223.067 201.393 C 223.067 201.901,223.951 203.975,225.244 206.495 C 225.440 206.877,225.600 207.606,225.600 208.115 C 225.600 208.624,225.765 209.211,225.967 209.420 C 226.168 209.629,226.393 210.160,226.467 210.600 C 226.540 211.040,226.768 211.521,226.974 211.670 C 227.196 211.829,227.135 212.196,226.826 212.569 C 226.405 213.076,226.399 213.432,226.795 214.387 C 227.165 215.282,227.177 215.890,226.844 216.847 C 226.511 217.800,226.519 218.261,226.874 218.690 C 227.158 219.032,227.198 219.369,226.974 219.530 C 226.768 219.679,226.559 220.339,226.509 220.997 C 226.458 221.656,226.213 222.262,225.963 222.346 C 225.656 222.448,225.685 222.608,226.055 222.842 C 226.454 223.095,226.466 223.189,226.100 223.194 C 225.825 223.197,225.600 223.524,225.600 223.920 C 225.600 224.316,225.384 224.856,225.120 225.120 C 224.747 225.493,224.750 225.600,225.136 225.600 C 225.449 225.600,225.360 225.891,224.895 226.390 C 224.490 226.825,223.795 227.860,223.349 228.690 C 221.823 231.536,221.398 232.140,220.080 233.328 C 219.327 234.006,218.852 234.760,218.975 235.080 C 219.101 235.408,219.016 235.533,218.770 235.382 C 218.261 235.067,216.731 236.364,217.033 236.853 C 217.151 237.044,216.860 237.200,216.386 237.200 C 215.850 237.200,215.443 237.514,215.307 238.034 C 215.141 238.670,215.008 238.741,214.744 238.334 C 214.486 237.933,214.336 238.032,214.144 238.734 C 213.994 239.284,213.777 239.487,213.617 239.228 C 213.307 238.725,211.212 239.622,210.393 240.608 C 210.114 240.944,209.232 241.200,208.351 241.200 C 207.498 241.200,206.800 241.380,206.800 241.600 C 206.800 241.820,206.361 242.000,205.824 242.000 C 205.287 242.000,204.736 242.180,204.600 242.400 C 204.464 242.620,204.173 242.800,203.953 242.800 C 203.733 242.800,203.664 242.620,203.800 242.400 C 203.936 242.180,203.867 242.000,203.647 242.000 C 203.427 242.000,203.131 242.189,202.988 242.419 C 202.811 242.706,202.550 242.691,202.164 242.370 C 201.759 242.034,201.600 242.028,201.600 242.351 C 201.600 242.959,199.483 242.923,198.863 242.303 C 198.468 241.908,198.290 241.928,197.989 242.403 C 197.738 242.802,197.610 242.834,197.606 242.500 C 197.603 242.225,197.409 242.000,197.176 242.000 C 196.943 242.000,196.864 242.180,197.000 242.400 C 197.136 242.620,197.067 242.800,196.847 242.800 C 196.627 242.800,196.336 242.620,196.200 242.400 C 196.064 242.180,195.513 242.000,194.976 242.000 C 194.439 242.000,193.986 241.775,193.968 241.500 C 193.943 241.100,193.896 241.100,193.735 241.500 C 193.624 241.775,193.358 242.000,193.143 242.000 C 192.928 242.000,192.864 241.820,193.000 241.600 C 193.224 241.238,191.999 240.984,191.000 241.186 C 190.780 241.230,190.731 241.136,190.891 240.976 C 191.051 240.816,190.061 240.118,188.691 239.425 C 187.321 238.732,185.736 237.857,185.168 237.481 C 184.601 237.105,183.987 236.933,183.804 237.099 C 183.621 237.264,183.594 237.186,183.744 236.925 C 183.894 236.663,183.788 236.303,183.508 236.125 C 183.229 235.946,182.245 234.960,181.322 233.933 C 180.369 232.872,179.562 232.268,179.454 232.533 C 179.349 232.790,179.243 232.640,179.219 232.200 C 179.166 231.239,178.227 229.907,177.860 230.273 C 177.717 230.416,177.600 230.160,177.600 229.704 C 177.600 228.836,176.029 225.600,175.608 225.600 C 175.473 225.600,175.319 224.925,175.264 224.100 C 175.210 223.275,174.993 222.540,174.782 222.467 C 174.572 222.393,174.400 221.729,174.400 220.990 C 174.400 220.252,174.201 219.524,173.957 219.374 C 173.636 219.175,173.641 219.022,173.973 218.817 C 174.295 218.618,174.314 218.227,174.037 217.499 C 173.570 216.269,173.593 212.400,174.068 212.400 C 174.251 212.400,174.400 211.691,174.400 210.824 C 174.400 209.957,174.580 209.136,174.800 209.000 C 175.020 208.864,175.200 208.223,175.200 207.576 C 175.200 206.929,175.380 206.400,175.600 206.400 C 175.820 206.400,176.000 206.051,176.000 205.624 C 176.000 205.197,176.180 204.736,176.400 204.600 C 176.620 204.464,176.800 204.003,176.800 203.576 C 176.800 203.149,176.980 202.800,177.200 202.800 C 177.420 202.800,177.603 202.305,177.606 201.700 C 177.611 200.843,177.698 200.732,178.000 201.200 C 178.337 201.721,178.389 201.713,178.394 201.143 C 178.402 200.314,185.434 193.200,186.246 193.200 C 186.577 193.200,186.736 193.020,186.600 192.800 C 186.464 192.580,186.678 192.394,187.076 192.387 C 187.474 192.380,188.154 192.107,188.588 191.779 C 189.021 191.452,190.056 191.000,190.888 190.776 C 191.719 190.552,192.400 190.185,192.400 189.961 C 192.400 189.736,192.569 189.657,192.776 189.785 C 193.238 190.071,196.380 189.600,196.336 189.251 C 196.253 188.575,196.474 188.419,197.300 188.573 C 197.795 188.665,199.640 188.775,201.400 188.818 M276.000 193.976 C 276.000 194.429,276.180 194.800,276.400 194.800 C 276.620 194.800,276.800 194.541,276.800 194.224 C 276.800 193.907,276.620 193.536,276.400 193.400 C 276.180 193.264,276.000 193.523,276.000 193.976 M276.800 195.720 C 276.800 196.006,276.963 196.411,277.161 196.620 C 277.360 196.829,277.602 197.360,277.699 197.800 C 277.873 198.585,277.883 198.585,278.210 197.824 C 278.427 197.319,278.379 196.993,278.072 196.891 C 277.812 196.804,277.600 196.388,277.600 195.967 C 277.600 195.545,277.420 195.200,277.200 195.200 C 276.980 195.200,276.800 195.434,276.800 195.720 M279.200 201.176 C 279.200 201.629,279.380 202.000,279.600 202.000 C 279.820 202.000,280.000 201.741,280.000 201.424 C 280.000 201.107,279.820 200.736,279.600 200.600 C 279.380 200.464,279.200 200.723,279.200 201.176 M280.000 203.400 C 280.000 203.730,280.180 204.000,280.400 204.000 C 280.620 204.000,280.800 204.360,280.800 204.800 C 280.800 205.240,280.979 205.600,281.197 205.600 C 281.416 205.600,281.519 205.195,281.427 204.700 C 281.335 204.205,281.246 203.575,281.230 203.300 C 281.187 202.583,280.000 202.680,280.000 203.400 M282.400 208.613 C 282.400 208.936,282.580 209.200,282.800 209.200 C 283.020 209.200,283.200 209.571,283.200 210.024 C 283.200 210.477,283.380 210.736,283.601 210.599 C 283.863 210.438,283.868 210.100,283.615 209.628 C 283.402 209.231,283.320 208.814,283.431 208.702 C 283.543 208.590,283.357 208.392,283.017 208.262 C 282.634 208.115,282.400 208.247,282.400 208.613 M284.170 212.278 C 284.225 212.651,284.497 213.032,284.774 213.125 C 285.166 213.255,285.177 213.105,284.825 212.446 C 284.278 211.425,284.036 211.362,284.170 212.278 M285.020 213.976 C 284.785 214.350,284.824 214.608,285.129 214.710 C 285.388 214.796,285.600 215.302,285.600 215.833 C 285.600 216.365,285.759 216.800,285.953 216.800 C 286.148 216.800,286.285 216.276,286.259 215.635 C 286.233 214.994,286.087 214.546,285.936 214.640 C 285.784 214.733,285.598 214.493,285.521 214.105 C 285.405 213.518,285.321 213.497,285.020 213.976 M286.400 218.024 C 286.400 218.477,286.561 218.748,286.757 218.626 C 286.954 218.505,287.222 218.834,287.354 219.359 C 287.485 219.883,287.852 220.411,288.167 220.532 C 288.638 220.713,288.669 220.545,288.343 219.608 C 288.124 218.979,287.675 218.361,287.347 218.235 C 287.018 218.109,286.861 217.824,286.998 217.603 C 287.135 217.381,287.057 217.200,286.824 217.200 C 286.591 217.200,286.400 217.571,286.400 218.024 M288.832 223.244 C 288.885 224.147,290.557 226.935,291.110 227.042 C 291.390 227.096,291.435 227.049,291.210 226.937 C 290.984 226.825,290.800 226.486,290.800 226.184 C 290.800 225.883,290.350 224.972,289.800 224.162 C 289.250 223.351,288.815 222.938,288.832 223.244 M291.628 229.300 C 291.613 229.905,291.780 230.400,292.000 230.400 C 292.469 230.400,292.469 230.093,292.000 229.000 C 291.695 228.291,291.653 228.325,291.628 229.300 M292.400 231.400 C 292.400 231.730,292.580 232.000,292.800 232.000 C 293.020 232.000,293.200 231.730,293.200 231.400 C 293.200 231.070,293.020 230.800,292.800 230.800 C 292.580 230.800,292.400 231.070,292.400 231.400 M293.834 235.146 C 293.698 235.365,293.782 235.665,294.021 235.813 C 294.259 235.960,294.358 236.333,294.240 236.640 C 294.122 236.948,294.178 237.200,294.364 237.200 C 294.550 237.200,294.931 237.750,295.209 238.422 C 295.515 239.161,295.860 239.500,296.081 239.279 C 296.302 239.058,296.021 238.139,295.369 236.956 C 294.050 234.564,294.133 234.661,293.834 235.146 M296.488 240.641 C 296.443 241.193,296.568 241.543,296.767 241.420 C 296.966 241.297,297.090 240.933,297.043 240.610 C 296.892 239.584,296.574 239.602,296.488 240.641 M297.010 241.983 C 296.845 242.251,296.907 242.667,297.148 242.908 C 297.763 243.523,298.152 243.000,297.692 242.179 C 297.412 241.679,297.231 241.627,297.010 241.983 M297.992 244.771 C 298.483 246.483,299.047 247.371,299.342 246.894 C 299.651 246.393,298.532 243.600,298.023 243.600 C 297.807 243.600,297.795 244.084,297.992 244.771 " stroke="none" fill="#dc1c7c" fill-rule="evenodd"></path><path id="path1" d="M358.977 17.707 C 358.148 18.606,355.042 21.367,351.476 24.376 C 350.417 25.269,349.692 26.000,349.865 26.000 C 350.037 26.000,349.733 26.311,349.189 26.691 C 347.414 27.932,346.260 28.961,343.795 31.500 C 342.460 32.875,341.230 34.000,341.062 34.000 C 340.894 34.000,339.696 35.080,338.400 36.400 C 337.104 37.720,335.881 38.800,335.681 38.800 C 335.482 38.800,334.797 39.296,334.159 39.903 C 333.522 40.510,331.020 42.616,328.600 44.583 C 326.180 46.550,323.750 48.631,323.200 49.208 C 322.650 49.785,321.858 50.446,321.440 50.678 C 319.152 51.945,308.800 62.074,308.800 63.045 C 308.800 63.862,310.824 66.000,311.597 66.000 C 311.818 66.000,312.000 66.150,312.000 66.332 C 312.000 66.515,312.495 66.920,313.100 67.232 C 313.705 67.544,314.290 67.890,314.400 68.002 C 314.994 68.606,320.648 72.530,321.454 72.897 C 321.974 73.134,322.400 73.439,322.400 73.573 C 322.400 73.708,323.030 74.157,323.800 74.572 C 324.570 74.987,325.200 75.478,325.200 75.663 C 325.200 75.848,325.442 76.000,325.738 76.000 C 326.034 76.000,326.602 76.360,327.000 76.800 C 327.398 77.240,327.886 77.600,328.084 77.600 C 328.282 77.600,329.504 78.320,330.800 79.200 C 332.096 80.080,333.306 80.800,333.490 80.800 C 333.673 80.800,334.083 81.160,334.400 81.600 C 334.717 82.040,335.220 82.400,335.517 82.400 C 336.329 82.400,337.518 83.694,336.896 83.901 C 336.623 83.992,336.400 84.401,336.400 84.810 C 336.400 85.218,336.220 85.664,336.000 85.800 C 335.780 85.936,335.600 86.399,335.600 86.828 C 335.600 87.257,335.222 88.462,334.760 89.504 C 334.298 90.547,333.777 91.760,333.602 92.200 C 333.426 92.640,332.839 93.990,332.297 95.200 C 331.755 96.410,331.174 97.850,331.007 98.400 C 330.839 98.950,330.562 99.580,330.390 99.800 C 330.218 100.020,329.423 101.910,328.623 104.000 C 327.823 106.090,327.014 108.160,326.825 108.600 C 326.635 109.040,326.264 110.030,326.000 110.800 C 325.448 112.409,325.092 113.350,324.454 114.900 C 324.204 115.505,323.796 116.495,323.546 117.100 C 323.297 117.705,322.916 118.650,322.700 119.200 C 322.484 119.750,322.148 120.513,321.953 120.895 C 321.759 121.277,321.600 121.952,321.600 122.395 C 321.600 122.838,321.420 123.200,321.200 123.200 C 320.980 123.200,320.800 123.639,320.800 124.176 C 320.800 124.713,320.620 125.264,320.400 125.400 C 320.180 125.536,320.000 125.997,320.000 126.424 C 320.000 126.851,319.820 127.200,319.600 127.200 C 319.380 127.200,319.200 127.740,319.200 128.400 C 319.200 129.060,319.020 129.600,318.800 129.600 C 318.580 129.600,318.400 129.949,318.400 130.376 C 318.400 130.803,318.220 131.264,318.000 131.400 C 317.780 131.536,317.600 132.177,317.600 132.824 C 317.600 133.471,317.420 134.000,317.200 134.000 C 316.980 134.000,316.800 134.360,316.800 134.800 C 316.800 135.240,316.620 135.600,316.400 135.600 C 316.180 135.600,316.000 136.140,316.000 136.800 C 316.000 137.460,315.820 138.000,315.600 138.000 C 315.380 138.000,315.200 138.360,315.200 138.800 C 315.200 139.240,315.020 139.600,314.800 139.600 C 314.580 139.600,314.400 140.140,314.400 140.800 C 314.400 141.460,314.220 142.000,314.000 142.000 C 313.780 142.000,313.600 142.349,313.600 142.776 C 313.600 143.203,313.420 143.664,313.200 143.800 C 312.596 144.173,312.721 146.236,313.381 146.784 C 314.004 147.301,315.281 147.054,316.098 146.257 C 316.374 145.988,317.009 145.485,317.509 145.140 C 318.008 144.795,319.088 143.897,319.909 143.145 C 320.729 142.393,322.203 141.152,323.184 140.388 C 325.787 138.362,327.515 136.864,329.974 134.500 C 331.175 133.345,332.310 132.400,332.496 132.400 C 332.681 132.400,333.231 132.023,333.717 131.562 C 334.203 131.101,335.410 130.168,336.400 129.489 C 337.390 128.809,338.290 128.142,338.400 128.007 C 338.510 127.872,339.230 127.329,340.000 126.800 C 340.770 126.271,341.670 125.548,342.000 125.194 C 342.330 124.840,343.410 123.995,344.400 123.317 C 345.390 122.639,346.633 121.706,347.161 121.242 C 347.690 120.779,348.237 120.400,348.378 120.400 C 348.518 120.400,349.301 119.770,350.118 119.000 C 350.934 118.230,351.737 117.600,351.903 117.600 C 352.069 117.600,352.969 116.880,353.903 116.000 C 354.837 115.120,355.705 114.400,355.832 114.400 C 355.959 114.400,356.754 113.680,357.600 112.800 C 358.446 111.920,359.331 111.200,359.568 111.200 C 359.805 111.200,360.741 110.480,361.648 109.600 C 362.555 108.720,363.454 108.000,363.647 108.000 C 363.840 108.000,364.641 107.394,365.426 106.653 C 366.804 105.353,367.823 104.721,369.300 104.249 C 370.781 103.776,370.202 101.476,368.407 100.698 C 367.530 100.319,366.331 99.466,365.741 98.804 C 365.151 98.142,364.461 97.600,364.209 97.600 C 363.956 97.600,363.232 97.060,362.600 96.400 C 361.968 95.740,361.302 95.200,361.122 95.200 C 360.941 95.200,360.228 94.660,359.537 94.000 C 358.846 93.340,358.104 92.800,357.888 92.800 C 357.671 92.800,357.203 92.476,356.847 92.081 C 356.491 91.686,355.570 90.929,354.800 90.400 C 354.030 89.871,353.310 89.332,353.200 89.202 C 353.090 89.072,351.470 87.848,349.600 86.482 C 347.730 85.117,345.684 83.595,345.054 83.100 C 344.424 82.605,343.569 82.037,343.154 81.839 C 342.335 81.447,342.073 79.049,342.800 78.600 C 343.020 78.464,343.200 77.924,343.200 77.400 C 343.200 76.876,343.380 76.336,343.600 76.200 C 343.820 76.064,344.000 75.601,344.000 75.171 C 344.000 74.741,344.208 73.987,344.462 73.495 C 345.472 71.541,345.600 71.175,345.600 70.229 C 345.600 69.689,345.780 69.136,346.000 69.000 C 346.220 68.864,346.400 68.313,346.400 67.776 C 346.400 67.239,346.580 66.800,346.800 66.800 C 347.020 66.800,347.200 66.260,347.200 65.600 C 347.200 64.940,347.380 64.400,347.600 64.400 C 347.820 64.400,348.000 63.860,348.000 63.200 C 348.000 62.540,348.180 62.000,348.400 62.000 C 348.620 62.000,348.800 61.460,348.800 60.800 C 348.800 60.140,348.980 59.600,349.200 59.600 C 349.420 59.600,349.600 59.060,349.600 58.400 C 349.600 57.740,349.780 57.200,350.000 57.200 C 350.220 57.200,350.400 56.761,350.400 56.224 C 350.400 55.687,350.580 55.136,350.800 55.000 C 351.020 54.864,351.200 54.324,351.200 53.800 C 351.200 53.276,351.380 52.736,351.600 52.600 C 351.820 52.464,352.000 51.949,352.000 51.456 C 352.000 50.963,352.143 50.389,352.318 50.180 C 352.493 49.971,352.865 49.080,353.145 48.200 C 353.424 47.320,353.802 46.240,353.985 45.800 C 354.892 43.614,358.800 30.861,358.800 30.088 C 358.800 29.600,358.980 29.200,359.200 29.200 C 359.420 29.200,359.600 28.660,359.600 28.000 C 359.600 27.340,359.780 26.800,360.000 26.800 C 360.220 26.800,360.400 26.260,360.400 25.600 C 360.400 24.940,360.580 24.400,360.800 24.400 C 361.020 24.400,361.200 23.860,361.200 23.200 C 361.200 22.540,361.380 22.000,361.600 22.000 C 361.820 22.000,362.000 21.561,362.000 21.024 C 362.000 20.487,362.180 19.936,362.400 19.800 C 362.620 19.664,362.800 18.933,362.800 18.176 C 362.800 16.430,360.423 16.138,358.977 17.707 " stroke="none" fill="#64549b" fill-rule="evenodd"></path><path id="path2" d="M87.067 283.467 C 86.920 283.613,86.800 283.990,86.800 284.303 C 86.800 285.361,84.642 287.988,83.947 287.775 C 83.588 287.666,83.196 287.834,83.075 288.149 C 82.942 288.496,83.160 288.801,83.628 288.923 C 84.356 289.114,84.778 290.800,84.098 290.800 C 83.931 290.800,83.551 291.352,83.252 292.027 C 82.953 292.702,82.267 293.423,81.727 293.628 C 80.834 293.967,80.802 294.059,81.372 294.629 C 82.157 295.414,82.171 295.270,81.100 297.393 C 80.452 298.679,79.955 299.181,79.324 299.189 C 78.842 299.195,78.319 299.408,78.162 299.662 C 77.996 299.930,78.051 300.016,78.293 299.866 C 78.968 299.449,79.697 300.664,79.377 301.673 C 78.960 302.987,77.538 304.800,76.925 304.800 C 76.279 304.800,76.269 305.001,76.868 305.960 C 77.366 306.758,76.676 309.200,75.951 309.200 C 75.758 309.200,75.600 309.393,75.600 309.629 C 75.600 309.864,75.346 310.311,75.036 310.622 C 74.725 310.932,74.559 311.521,74.666 311.931 C 74.777 312.354,74.328 313.516,73.630 314.616 C 72.954 315.684,72.400 316.949,72.400 317.428 C 72.400 318.441,70.505 322.000,69.966 322.000 C 69.765 322.000,69.596 322.495,69.591 323.100 C 69.579 324.584,68.278 327.358,66.990 328.647 C 66.238 329.398,66.061 329.821,66.369 330.129 C 67.372 331.132,64.848 335.270,63.776 334.380 C 62.942 333.688,63.004 334.720,63.853 335.658 C 64.638 336.526,64.173 337.990,62.560 339.730 C 61.870 340.473,61.632 341.071,61.806 341.619 C 62.142 342.678,60.069 345.998,59.071 345.999 C 58.409 346.000,58.400 346.057,58.971 346.629 C 59.904 347.561,58.793 350.509,57.076 351.657 C 56.865 351.798,56.805 352.365,56.943 352.916 C 57.131 353.664,56.852 354.417,55.839 355.888 C 54.849 357.328,54.539 358.147,54.689 358.929 C 54.812 359.573,54.715 360.000,54.447 360.000 C 54.201 360.000,54.000 360.230,54.000 360.511 C 54.000 360.792,53.505 361.564,52.900 362.226 C 52.295 362.888,51.773 363.874,51.740 364.415 C 51.645 365.978,51.439 366.540,50.452 367.927 C 48.610 370.513,47.269 370.400,79.773 370.400 C 109.487 370.400,111.633 370.299,110.299 368.966 C 110.135 368.801,110.000 368.890,110.000 369.162 C 110.000 369.509,109.821 369.478,109.400 369.057 C 108.441 368.098,108.584 364.142,109.600 363.507 C 110.440 362.983,110.772 360.400,110.000 360.400 C 109.164 360.400,109.540 356.909,110.400 356.684 C 111.238 356.465,111.486 355.424,110.800 355.000 C 110.072 354.550,110.388 353.809,111.603 353.119 C 112.261 352.744,112.800 352.219,112.800 351.952 C 112.800 351.685,112.681 351.586,112.536 351.731 C 112.391 351.876,112.017 351.631,111.705 351.186 C 111.198 350.461,111.235 350.293,112.069 349.558 C 112.581 349.108,112.775 348.853,112.500 348.993 C 111.776 349.361,111.862 347.601,112.643 346.033 C 112.997 345.324,113.717 344.547,114.243 344.307 C 115.207 343.868,115.586 343.114,114.750 343.300 C 114.502 343.355,114.217 343.175,114.117 342.900 C 114.005 342.596,114.277 342.400,114.809 342.400 C 115.437 342.400,115.618 342.224,115.447 341.779 C 115.311 341.423,115.378 341.263,115.605 341.403 C 115.822 341.537,116.000 341.457,116.000 341.224 C 116.000 340.991,115.820 340.800,115.600 340.800 C 115.380 340.800,115.200 340.511,115.200 340.157 C 115.200 339.750,115.420 339.599,115.801 339.745 C 116.329 339.948,116.327 339.861,115.788 339.037 C 114.899 337.681,115.781 335.779,117.229 335.929 C 117.355 335.942,117.445 335.558,117.429 335.076 C 117.412 334.550,117.612 334.244,117.930 334.310 C 118.294 334.386,118.380 334.166,118.203 333.610 C 118.005 332.987,118.183 332.711,118.976 332.409 C 119.829 332.085,119.988 331.793,119.903 330.709 C 119.832 329.811,119.963 329.433,120.317 329.506 C 120.709 329.586,120.734 329.423,120.417 328.832 C 120.188 328.403,119.998 327.636,119.996 327.126 C 119.994 326.597,119.138 325.201,117.996 323.868 C 116.898 322.585,116.000 321.377,116.000 321.183 C 116.000 320.990,115.206 319.857,114.236 318.666 C 113.266 317.475,112.203 315.983,111.874 315.350 C 111.545 314.718,110.809 313.764,110.238 313.230 C 109.667 312.697,109.200 312.105,109.200 311.914 C 109.200 311.508,107.785 309.497,106.500 308.078 C 106.005 307.531,105.600 306.911,105.600 306.700 C 105.600 306.489,104.700 305.240,103.600 303.924 C 102.500 302.607,101.600 301.340,101.600 301.108 C 101.600 300.876,100.818 299.767,99.862 298.643 C 98.906 297.519,97.887 296.150,97.597 295.600 C 97.307 295.050,96.204 293.430,95.147 292.000 C 94.090 290.570,92.814 288.810,92.312 288.088 C 89.157 283.552,88.000 282.533,87.067 283.467 " stroke="none" fill="#a4449b" fill-rule="evenodd"></path><path id="path3" d="M186.400 48.600 C 186.400 48.930,186.265 49.201,186.100 49.203 C 185.935 49.205,185.592 49.655,185.337 50.204 C 185.083 50.752,185.038 51.100,185.237 50.977 C 185.437 50.854,185.600 51.203,185.600 51.753 C 185.600 52.303,185.420 52.864,185.200 53.000 C 184.980 53.136,184.786 53.732,184.768 54.324 C 184.751 54.916,184.646 55.175,184.535 54.900 C 184.246 54.184,183.200 54.281,183.200 55.024 C 183.200 55.367,183.380 55.536,183.600 55.400 C 183.820 55.264,184.000 55.428,184.000 55.764 C 184.000 56.143,183.772 56.287,183.399 56.144 C 182.968 55.979,182.727 56.266,182.549 57.157 C 182.412 57.841,182.143 58.400,181.950 58.400 C 181.758 58.400,181.600 58.580,181.600 58.800 C 181.600 59.020,181.885 59.200,182.233 59.200 C 182.582 59.200,182.788 59.425,182.692 59.700 C 182.596 59.975,182.234 60.150,181.889 60.089 C 181.543 60.029,181.147 60.161,181.009 60.385 C 180.856 60.632,181.028 60.687,181.449 60.526 C 182.004 60.313,182.081 60.412,181.841 61.031 C 181.678 61.454,181.444 62.295,181.322 62.900 C 181.100 63.998,180.405 64.447,180.394 63.500 C 180.390 63.162,180.267 63.191,180.015 63.589 C 179.774 63.970,179.797 64.275,180.079 64.449 C 180.320 64.598,180.391 65.047,180.237 65.448 C 179.999 66.068,179.900 66.089,179.579 65.589 C 179.318 65.183,179.276 65.388,179.441 66.251 C 179.582 66.986,179.499 67.615,179.240 67.775 C 178.998 67.925,178.800 68.397,178.800 68.824 C 178.800 69.251,178.620 69.600,178.400 69.600 C 178.180 69.600,178.000 69.341,178.000 69.024 C 178.000 68.707,178.180 68.336,178.400 68.200 C 178.620 68.064,178.800 67.659,178.800 67.300 C 178.800 66.752,178.705 66.772,178.213 67.424 C 177.890 67.851,177.620 68.590,177.613 69.067 C 177.606 69.543,177.465 70.009,177.300 70.101 C 177.135 70.193,177.225 70.214,177.500 70.147 C 177.775 70.080,178.000 70.379,178.000 70.813 C 178.000 71.246,177.820 71.600,177.600 71.600 C 177.380 71.600,177.200 71.960,177.200 72.400 C 177.200 72.840,177.020 73.200,176.800 73.200 C 176.580 73.200,176.400 73.639,176.400 74.176 C 176.400 74.713,176.220 75.264,176.000 75.400 C 175.780 75.536,175.600 75.997,175.600 76.424 C 175.600 76.851,175.420 77.200,175.200 77.200 C 174.127 77.200,175.101 79.307,178.100 83.480 C 179.915 86.005,182.210 89.211,183.200 90.605 C 184.190 91.999,186.800 95.616,189.000 98.643 C 193.421 104.725,195.137 107.105,196.609 109.200 C 197.869 110.992,200.104 114.103,206.800 123.385 C 211.927 130.491,212.779 131.679,214.901 134.665 C 215.395 135.361,218.230 139.292,221.200 143.401 C 224.170 147.509,226.960 151.378,227.400 151.999 C 227.840 152.620,230.180 155.867,232.600 159.215 C 237.459 165.938,240.292 169.875,241.800 172.000 C 243.315 174.135,246.153 178.080,251.000 184.784 C 253.420 188.132,255.805 191.440,256.299 192.136 C 256.793 192.831,257.603 193.971,258.099 194.669 C 260.662 198.279,281.670 227.499,291.961 241.768 C 293.853 244.390,296.310 247.810,297.423 249.368 C 299.406 252.144,300.728 253.024,300.476 251.400 C 300.408 250.960,300.306 250.282,300.250 249.894 C 300.194 249.505,299.934 248.974,299.674 248.714 C 299.136 248.176,299.049 247.600,299.506 247.600 C 299.674 247.600,300.123 248.320,300.504 249.200 C 300.886 250.080,301.361 250.800,301.560 250.800 C 301.759 250.800,301.468 249.889,300.913 248.776 C 300.289 247.523,299.706 246.827,299.385 246.950 C 298.860 247.152,298.592 246.718,297.976 244.664 C 297.694 243.724,297.742 243.569,298.251 243.764 C 298.638 243.913,298.802 243.815,298.692 243.500 C 298.596 243.225,298.234 243.050,297.889 243.111 C 297.139 243.243,296.643 242.578,297.026 241.957 C 297.218 241.648,297.415 241.678,297.680 242.057 C 297.988 242.496,298.028 242.485,297.887 242.000 C 297.792 241.670,297.418 241.425,297.057 241.456 C 296.696 241.486,296.400 241.250,296.400 240.932 C 296.400 240.613,296.550 240.445,296.733 240.559 C 296.917 240.672,297.067 240.511,297.067 240.200 C 297.067 239.889,296.917 239.728,296.733 239.841 C 296.550 239.955,296.400 239.846,296.400 239.600 C 296.400 239.354,296.241 239.251,296.046 239.371 C 295.852 239.491,295.470 239.052,295.198 238.395 C 294.926 237.738,294.534 237.200,294.328 237.200 C 294.122 237.200,294.069 237.012,294.211 236.782 C 294.353 236.553,294.265 236.119,294.015 235.818 C 293.760 235.510,293.719 235.174,293.922 235.048 C 294.121 234.925,294.513 235.314,294.794 235.913 C 295.155 236.681,295.366 236.830,295.512 236.420 C 295.627 236.101,295.513 235.771,295.260 235.687 C 295.007 235.602,294.800 235.188,294.800 234.767 C 294.800 234.345,294.620 234.000,294.400 234.000 C 294.180 234.000,294.000 233.550,294.000 233.000 C 294.000 232.267,293.787 232.000,293.200 232.000 C 292.756 232.000,292.400 231.733,292.400 231.400 C 292.400 231.070,292.591 230.800,292.824 230.800 C 293.057 230.800,293.141 230.628,293.011 230.417 C 292.881 230.207,292.510 230.136,292.187 230.260 C 291.749 230.429,291.600 230.171,291.600 229.243 C 291.600 228.518,291.391 227.997,291.100 227.994 C 290.726 227.989,290.734 227.903,291.134 227.650 C 291.566 227.376,291.550 227.266,291.052 227.075 C 290.452 226.845,288.799 223.869,288.801 223.025 C 288.802 222.791,289.160 223.185,289.596 223.900 C 290.735 225.769,290.822 225.510,289.897 223.000 C 289.452 221.790,288.938 220.800,288.756 220.800 C 288.574 220.800,288.480 220.575,288.547 220.300 C 288.614 220.025,288.593 219.935,288.501 220.100 C 288.178 220.678,287.517 220.394,287.753 219.779 C 287.889 219.423,287.822 219.263,287.595 219.403 C 287.378 219.537,287.200 219.356,287.200 219.000 C 287.200 218.644,287.020 218.464,286.800 218.600 C 286.580 218.736,286.400 218.477,286.400 218.024 C 286.400 217.571,286.591 217.200,286.824 217.200 C 287.057 217.200,287.144 217.368,287.017 217.572 C 286.891 217.777,286.982 218.065,287.220 218.212 C 288.029 218.712,287.997 218.143,287.116 216.369 C 286.633 215.396,286.214 214.510,286.184 214.400 C 286.015 213.766,285.438 212.408,284.767 211.062 C 284.345 210.216,284.000 209.261,284.000 208.939 C 284.000 208.616,283.820 208.464,283.599 208.601 C 283.331 208.766,283.331 209.098,283.600 209.600 C 283.869 210.102,283.869 210.434,283.601 210.599 C 283.380 210.736,283.200 210.477,283.200 210.024 C 283.200 209.571,283.020 209.200,282.800 209.200 C 282.580 209.200,282.400 208.919,282.400 208.576 C 282.400 208.233,282.580 208.064,282.800 208.200 C 283.483 208.622,283.237 207.065,282.404 205.700 C 281.579 204.347,281.057 203.962,281.455 205.000 C 281.582 205.330,281.486 205.600,281.243 205.600 C 280.999 205.600,280.800 205.240,280.800 204.800 C 280.800 204.360,280.620 204.000,280.400 204.000 C 280.180 204.000,280.000 203.730,280.000 203.400 C 280.000 203.070,280.180 202.800,280.400 202.800 C 280.620 202.800,280.800 202.350,280.800 201.800 C 280.800 201.250,280.620 200.800,280.400 200.800 C 280.180 200.800,280.000 200.518,280.000 200.173 C 280.000 199.728,279.768 199.620,279.200 199.800 C 278.741 199.946,278.400 199.872,278.400 199.627 C 278.400 199.392,278.535 199.245,278.700 199.300 C 279.068 199.423,279.200 199.063,279.200 197.938 C 279.200 197.101,279.176 197.097,278.400 197.800 C 277.624 198.502,277.600 198.499,277.600 197.686 C 277.600 197.224,277.420 196.736,277.200 196.600 C 276.980 196.464,276.800 196.093,276.800 195.776 C 276.800 195.459,276.980 195.200,277.200 195.200 C 277.420 195.200,277.600 195.560,277.600 196.000 C 277.600 196.440,277.780 196.800,278.000 196.800 C 278.553 196.800,278.514 196.597,277.600 194.706 C 277.160 193.795,276.800 192.814,276.800 192.525 C 276.800 192.236,276.620 192.000,276.400 192.000 C 276.180 192.000,276.000 192.180,276.000 192.400 C 276.000 193.254,275.272 192.743,275.012 191.706 C 274.861 191.105,274.302 189.659,273.769 188.494 C 272.613 185.968,272.627 186.100,273.500 185.891 C 274.127 185.741,274.117 185.690,273.400 185.400 C 272.011 184.837,271.502 184.308,272.034 183.979 C 272.348 183.785,272.220 183.597,271.653 183.417 C 270.586 183.078,270.475 181.822,271.537 182.099 C 272.180 182.268,272.218 182.174,271.837 181.366 C 271.561 180.781,271.260 180.580,271.020 180.820 C 270.428 181.412,270.000 181.269,270.000 180.480 C 270.000 180.084,269.784 179.544,269.520 179.280 C 269.256 179.016,269.191 178.800,269.376 178.800 C 269.561 178.800,269.942 179.115,270.223 179.499 C 270.992 180.550,271.254 179.925,270.585 178.636 C 270.263 178.016,270.000 177.259,270.000 176.954 C 270.000 176.649,269.820 176.400,269.600 176.400 C 269.380 176.400,269.200 176.040,269.200 175.600 C 269.200 175.160,269.020 174.800,268.800 174.800 C 268.580 174.800,268.445 175.003,268.500 175.250 C 268.555 175.498,268.375 175.783,268.100 175.883 C 267.782 176.000,267.600 175.691,267.600 175.033 C 267.600 174.465,267.399 174.000,267.153 174.000 C 266.897 174.000,266.785 173.589,266.891 173.037 C 267.023 172.346,266.923 172.132,266.538 172.279 C 266.172 172.420,266.000 172.152,266.000 171.443 C 266.000 170.869,265.820 170.400,265.600 170.400 C 265.380 170.400,265.200 170.040,265.200 169.600 C 265.200 169.160,265.020 168.800,264.800 168.800 C 264.580 168.800,264.400 168.350,264.400 167.800 C 264.400 167.250,264.220 166.800,264.000 166.800 C 263.780 166.800,263.600 166.350,263.600 165.800 C 263.600 165.250,263.420 164.800,263.200 164.800 C 262.980 164.800,262.800 164.440,262.800 164.000 C 262.800 163.560,262.620 163.200,262.400 163.200 C 262.180 163.200,262.000 162.750,262.000 162.200 C 262.000 161.650,261.820 161.200,261.600 161.200 C 261.380 161.200,261.200 160.750,261.200 160.200 C 261.200 159.650,261.020 159.200,260.800 159.200 C 260.580 159.200,260.400 158.840,260.400 158.400 C 260.400 157.960,260.220 157.600,260.000 157.600 C 259.780 157.600,259.600 157.150,259.600 156.600 C 259.600 156.050,259.420 155.600,259.200 155.600 C 258.980 155.600,258.800 155.150,258.800 154.600 C 258.800 154.050,258.598 153.600,258.350 153.600 C 258.065 153.600,257.987 153.167,258.136 152.418 C 258.323 151.485,258.249 151.283,257.786 151.461 C 257.386 151.614,257.200 151.419,257.200 150.843 C 257.200 150.379,256.996 150.000,256.748 150.000 C 256.449 150.000,256.377 149.491,256.536 148.500 C 256.695 147.515,256.651 147.202,256.410 147.589 C 256.094 148.095,256.007 148.084,255.786 147.508 C 255.645 147.140,255.646 146.650,255.788 146.419 C 255.931 146.189,255.753 146.000,255.394 146.000 C 254.981 146.000,254.797 145.743,254.894 145.300 C 254.979 144.915,255.275 144.649,255.553 144.710 C 255.832 144.770,255.938 144.623,255.789 144.383 C 255.641 144.142,255.276 144.039,254.979 144.153 C 254.286 144.419,253.108 142.118,253.426 141.119 C 253.580 140.631,253.480 140.417,253.130 140.490 C 252.768 140.565,252.638 140.240,252.721 139.464 C 252.797 138.746,252.687 138.423,252.421 138.587 C 252.189 138.730,252.000 138.554,252.000 138.195 C 252.000 137.836,251.738 137.281,251.417 136.960 C 251.096 136.639,250.927 136.135,251.040 135.840 C 251.153 135.545,250.969 135.197,250.630 135.067 C 250.291 134.937,250.113 134.572,250.234 134.256 C 250.355 133.940,250.262 133.562,250.027 133.417 C 249.792 133.272,249.600 132.793,249.600 132.353 C 249.600 131.850,249.772 131.659,250.062 131.838 C 250.357 132.021,250.415 131.947,250.221 131.635 C 250.055 131.366,249.667 131.242,249.360 131.360 C 248.964 131.512,248.802 131.256,248.806 130.487 C 248.811 129.610,248.894 129.516,249.237 130.000 C 249.614 130.533,249.642 130.533,249.489 130.000 C 249.394 129.670,248.998 129.458,248.609 129.529 C 248.032 129.634,247.933 129.438,248.075 128.470 C 248.202 127.607,248.106 127.338,247.725 127.484 C 247.391 127.612,247.200 127.370,247.200 126.819 C 247.200 126.343,247.380 126.064,247.600 126.200 C 247.820 126.336,248.000 126.257,248.000 126.024 C 248.000 125.791,247.640 125.600,247.200 125.600 C 246.667 125.600,246.400 125.333,246.400 124.800 C 246.400 124.360,246.220 124.000,246.000 124.000 C 245.780 124.000,245.600 123.651,245.600 123.224 C 245.600 122.797,245.420 122.336,245.200 122.200 C 244.980 122.064,244.800 121.603,244.800 121.176 C 244.800 120.749,244.620 120.400,244.400 120.400 C 244.180 120.400,244.000 120.040,244.000 119.600 C 244.000 119.160,244.195 118.800,244.433 118.800 C 244.672 118.800,244.788 118.575,244.692 118.300 C 244.596 118.025,244.221 117.853,243.859 117.918 C 243.472 117.986,243.200 117.770,243.200 117.394 C 243.200 117.041,243.378 116.863,243.595 116.997 C 243.819 117.135,243.891 116.982,243.762 116.646 C 243.637 116.318,243.279 116.148,242.967 116.268 C 242.588 116.413,242.400 116.206,242.400 115.643 C 242.400 115.179,242.220 114.800,242.000 114.800 C 241.780 114.800,241.600 114.350,241.600 113.800 C 241.600 113.250,241.825 112.797,242.100 112.794 C 242.443 112.790,242.418 112.672,242.019 112.420 C 241.700 112.218,241.295 112.142,241.119 112.250 C 240.944 112.358,240.800 112.257,240.800 112.024 C 240.800 111.791,240.963 111.600,241.163 111.600 C 241.362 111.600,241.434 111.252,241.323 110.828 C 241.209 110.390,240.890 110.144,240.588 110.260 C 240.271 110.381,239.787 109.948,239.398 109.195 C 238.620 107.692,238.817 107.276,239.830 108.281 C 240.528 108.973,240.545 108.973,240.278 108.267 C 240.125 107.864,240.000 107.371,240.000 107.172 C 240.000 106.973,239.615 106.852,239.144 106.905 C 238.673 106.957,238.202 106.756,238.097 106.458 C 237.955 106.057,238.153 105.986,238.853 106.184 C 239.490 106.365,239.625 106.331,239.266 106.081 C 238.972 105.877,238.747 105.596,238.766 105.455 C 238.893 104.502,238.741 103.989,238.393 104.204 C 238.170 104.342,238.091 104.623,238.217 104.828 C 238.344 105.032,238.276 105.200,238.066 105.200 C 237.857 105.200,237.576 104.915,237.443 104.567 C 237.118 103.721,237.137 103.514,237.517 103.749 C 238.051 104.078,237.983 102.458,237.417 101.368 C 237.060 100.680,236.787 100.497,236.591 100.815 C 236.429 101.076,236.469 101.404,236.678 101.545 C 237.391 102.023,237.611 103.200,236.987 103.200 C 236.664 103.200,236.400 102.840,236.400 102.400 C 236.400 101.960,236.220 101.600,236.000 101.600 C 235.780 101.600,235.600 101.150,235.600 100.600 C 235.600 100.050,235.420 99.600,235.200 99.600 C 234.980 99.600,234.800 99.150,234.800 98.600 C 234.800 98.050,234.620 97.600,234.400 97.600 C 234.180 97.600,234.000 97.276,234.000 96.880 C 234.000 96.484,234.180 95.944,234.400 95.680 C 234.691 95.331,234.669 95.309,234.320 95.600 C 234.056 95.820,233.696 96.000,233.520 96.000 C 232.997 96.000,233.157 94.087,233.700 93.837 C 233.975 93.711,233.795 93.708,233.300 93.831 C 232.538 94.020,232.400 93.892,232.400 93.003 C 232.400 92.405,232.572 92.059,232.800 92.200 C 233.020 92.336,233.200 92.267,233.200 92.047 C 233.200 91.827,233.020 91.536,232.800 91.400 C 232.580 91.264,232.400 91.343,232.400 91.576 C 232.400 91.809,232.220 92.000,232.000 92.000 C 231.780 92.000,231.600 91.640,231.600 91.200 C 231.600 90.760,231.420 90.400,231.200 90.400 C 230.620 90.400,230.708 88.509,231.300 88.237 C 231.575 88.111,231.372 88.115,230.848 88.247 C 229.980 88.466,229.912 88.382,230.073 87.285 C 230.201 86.409,230.107 86.138,229.725 86.284 C 229.391 86.412,229.200 86.170,229.200 85.619 C 229.200 85.143,229.380 84.864,229.600 85.000 C 229.820 85.136,230.000 84.954,230.000 84.597 C 230.000 84.128,229.776 84.017,229.200 84.200 C 228.542 84.409,228.400 84.272,228.400 83.427 C 228.400 82.862,228.264 82.400,228.098 82.400 C 227.931 82.400,227.560 81.815,227.271 81.100 C 226.983 80.385,226.579 79.487,226.374 79.105 C 226.168 78.723,226.000 78.138,226.000 77.805 C 226.000 77.472,225.820 77.200,225.600 77.200 C 225.380 77.200,225.200 76.845,225.200 76.412 C 225.200 75.979,224.831 74.967,224.379 74.163 C 223.827 73.181,223.638 72.336,223.802 71.589 C 223.939 70.967,223.860 70.361,223.623 70.214 C 223.391 70.071,223.175 69.468,223.146 68.876 C 223.098 67.934,223.070 67.912,222.918 68.700 C 222.705 69.802,222.000 69.897,222.000 68.824 C 222.000 68.397,221.810 67.930,221.578 67.786 C 221.346 67.643,221.217 67.227,221.292 66.863 C 221.368 66.498,221.153 65.990,220.815 65.733 C 220.478 65.476,220.346 65.121,220.522 64.944 C 220.699 64.768,221.011 64.888,221.216 65.212 C 221.524 65.699,221.589 65.673,221.594 65.063 C 221.597 64.657,221.240 64.231,220.800 64.116 C 220.302 63.986,220.011 63.585,220.028 63.053 C 220.056 62.222,220.065 62.221,220.400 63.000 C 220.589 63.440,220.756 63.573,220.772 63.295 C 220.787 63.017,220.633 62.477,220.429 62.095 C 220.225 61.713,219.954 61.066,219.826 60.658 C 219.684 60.205,219.361 60.006,218.997 60.146 C 218.596 60.300,218.400 60.124,218.400 59.611 C 218.400 59.191,218.220 58.736,218.000 58.600 C 217.780 58.464,217.600 57.993,217.600 57.553 C 217.600 57.113,217.778 56.863,217.995 56.997 C 218.219 57.135,218.291 56.982,218.162 56.646 C 218.037 56.318,217.724 56.131,217.467 56.230 C 217.210 56.328,216.763 55.822,216.473 55.105 C 216.184 54.387,215.779 53.487,215.574 53.105 C 215.368 52.723,215.213 52.003,215.228 51.505 C 215.255 50.643,215.273 50.638,215.600 51.400 C 215.789 51.840,215.956 52.011,215.972 51.780 C 216.013 51.161,215.049 49.207,214.700 49.203 C 214.535 49.201,214.400 48.930,214.400 48.600 C 214.400 48.078,212.578 48.000,200.400 48.000 C 188.222 48.000,186.400 48.078,186.400 48.600 M216.400 54.551 C 216.400 54.634,216.670 54.926,217.000 55.200 C 217.491 55.608,217.600 55.580,217.600 55.049 C 217.600 54.692,217.330 54.400,217.000 54.400 C 216.670 54.400,216.400 54.468,216.400 54.551 M219.728 62.388 C 219.432 62.714,218.840 61.458,219.095 61.046 C 219.229 60.830,219.464 61.001,219.619 61.427 C 219.773 61.852,219.822 62.285,219.728 62.388 M235.600 98.753 C 235.600 99.193,235.780 99.664,236.000 99.800 C 236.220 99.936,236.400 99.687,236.400 99.247 C 236.400 98.807,236.220 98.336,236.000 98.200 C 235.780 98.064,235.600 98.313,235.600 98.753 M269.200 176.976 C 269.200 177.293,269.020 177.664,268.800 177.800 C 268.580 177.936,268.400 177.677,268.400 177.224 C 268.400 176.771,268.580 176.400,268.800 176.400 C 269.020 176.400,269.200 176.659,269.200 176.976 M276.800 194.224 C 276.800 194.541,276.620 194.800,276.400 194.800 C 276.180 194.800,276.000 194.429,276.000 193.976 C 276.000 193.523,276.180 193.264,276.400 193.400 C 276.620 193.536,276.800 193.907,276.800 194.224 M280.000 201.424 C 280.000 201.741,279.820 202.000,279.600 202.000 C 279.380 202.000,279.200 201.629,279.200 201.176 C 279.200 200.723,279.380 200.464,279.600 200.600 C 279.820 200.736,280.000 201.107,280.000 201.424 M284.825 212.446 C 285.177 213.105,285.166 213.255,284.774 213.125 C 284.497 213.032,284.225 212.651,284.170 212.278 C 284.036 211.362,284.278 211.425,284.825 212.446 M286.257 216.100 C 286.333 216.485,286.216 216.800,285.997 216.800 C 285.779 216.800,285.600 216.365,285.600 215.833 C 285.600 215.302,285.388 214.796,285.129 214.710 C 284.841 214.614,284.789 214.342,284.995 214.008 C 285.338 213.453,285.926 214.429,286.257 216.100 M181.800 234.400 C 182.883 235.500,183.860 236.400,183.970 236.400 C 184.080 236.400,183.283 235.500,182.200 234.400 C 181.117 233.300,180.140 232.400,180.030 232.400 C 179.920 232.400,180.717 233.300,181.800 234.400 M199.044 242.471 C 199.298 242.882,201.600 242.909,201.599 242.500 C 201.598 242.335,200.977 242.187,200.219 242.171 C 199.461 242.155,198.932 242.290,199.044 242.471 M301.400 252.400 C 301.166 252.779,301.436 252.952,302.100 252.847 C 302.373 252.804,302.548 253.397,302.460 254.062 C 302.441 254.206,302.690 254.426,303.013 254.550 C 303.742 254.829,303.741 254.805,302.971 253.261 C 302.324 251.966,301.834 251.697,301.400 252.400 M138.202 307.198 C 137.803 307.639,137.607 308.000,137.767 308.000 C 138.188 308.000,139.328 306.795,139.112 306.579 C 139.011 306.478,138.602 306.756,138.202 307.198 " stroke="none" fill="#fb044c" fill-rule="evenodd"></path><path id="path4" d="M173.378 78.835 C 173.231 79.074,173.310 79.470,173.555 79.715 C 173.882 80.042,174.000 79.926,174.000 79.280 C 174.000 78.314,173.792 78.165,173.378 78.835 M154.501 122.603 C 154.666 122.786,154.502 123.266,154.137 123.670 C 153.771 124.074,153.545 124.476,153.636 124.563 C 153.726 124.650,154.115 124.300,154.501 123.785 C 155.038 123.066,155.084 122.781,154.701 122.560 C 154.425 122.401,154.335 122.421,154.501 122.603 M142.769 149.900 C 142.753 150.065,142.677 150.525,142.602 150.922 C 142.491 151.505,142.574 151.554,143.032 151.173 C 143.684 150.632,143.794 149.600,143.200 149.600 C 142.980 149.600,142.786 149.735,142.769 149.900 M140.510 156.000 C 140.477 156.440,140.619 156.800,140.825 156.800 C 141.031 156.800,141.200 156.440,141.200 156.000 C 141.200 155.560,141.058 155.200,140.885 155.200 C 140.712 155.200,140.543 155.560,140.510 156.000 M127.433 184.657 C 127.099 185.530,127.543 185.936,128.016 185.188 C 128.489 184.440,128.499 184.000,128.043 184.000 C 127.846 184.000,127.572 184.296,127.433 184.657 M196.197 188.806 C 195.926 189.243,196.030 189.273,197.915 189.291 C 199.304 189.304,200.280 188.821,198.967 188.770 C 198.545 188.754,197.804 188.666,197.320 188.576 C 196.836 188.485,196.331 188.589,196.197 188.806 M201.759 189.133 C 201.954 189.449,204.400 189.283,204.400 188.955 C 204.400 188.870,203.759 188.800,202.976 188.800 C 202.193 188.800,201.645 188.950,201.759 189.133 M122.179 197.166 C 122.303 197.367,122.179 197.619,121.902 197.725 C 121.626 197.831,121.805 197.899,122.300 197.874 C 123.301 197.825,123.564 196.800,122.576 196.800 C 122.233 196.800,122.055 196.965,122.179 197.166 M219.200 197.138 C 219.200 197.324,219.588 197.819,220.062 198.238 L 220.924 199.000 220.216 197.900 C 219.486 196.766,219.200 196.551,219.200 197.138 M117.241 208.151 C 116.881 208.584,116.956 208.748,117.592 208.914 C 118.194 209.071,118.400 208.931,118.400 208.363 C 118.400 207.467,117.886 207.373,117.241 208.151 M114.984 213.627 C 114.839 213.861,114.816 214.149,114.933 214.267 C 115.220 214.553,116.000 214.048,116.000 213.576 C 116.000 213.065,115.309 213.099,114.984 213.627 M112.475 219.225 C 112.571 219.514,112.886 219.829,113.175 219.925 C 113.475 220.025,113.625 219.875,113.525 219.575 C 113.429 219.286,113.114 218.971,112.825 218.875 C 112.525 218.775,112.375 218.925,112.475 219.225 M109.696 225.995 C 108.931 227.220,109.109 227.691,110.000 226.800 C 110.809 225.991,111.054 225.200,110.496 225.200 C 110.329 225.200,109.969 225.558,109.696 225.995 M106.910 232.800 C 106.982 233.758,107.420 233.845,107.757 232.967 C 108.099 232.077,108.072 232.000,107.425 232.000 C 107.096 232.000,106.876 232.343,106.910 232.800 M104.630 238.267 C 104.517 238.560,104.670 238.800,104.970 238.800 C 105.269 238.800,105.607 238.560,105.719 238.267 C 105.832 237.973,105.679 237.733,105.379 237.733 C 105.080 237.733,104.742 237.973,104.630 238.267 M101.977 244.300 C 101.054 246.141,101.078 246.246,102.151 245.048 C 102.719 244.414,103.086 243.739,102.968 243.548 C 102.653 243.038,102.583 243.092,101.977 244.300 M99.802 248.797 C 99.667 249.015,99.741 249.510,99.966 249.897 C 100.408 250.655,100.417 250.646,100.566 249.300 C 100.669 248.375,100.238 248.092,99.802 248.797 M97.371 255.200 C 97.371 255.645,97.558 255.947,97.786 255.871 C 98.014 255.795,98.200 255.493,98.200 255.200 C 98.200 254.907,98.014 254.605,97.786 254.529 C 97.558 254.453,97.371 254.755,97.371 255.200 M94.658 260.592 C 94.444 261.152,95.337 261.730,95.761 261.306 C 96.160 260.907,96.031 260.497,95.433 260.268 C 95.121 260.148,94.773 260.294,94.658 260.592 M86.633 279.457 C 86.252 280.450,86.672 280.586,87.182 279.634 C 87.427 279.175,87.461 278.800,87.257 278.800 C 87.053 278.800,86.772 279.096,86.633 279.457 M85.755 281.740 C 85.781 282.232,85.586 282.557,85.300 282.500 C 85.025 282.445,84.800 282.740,84.800 283.156 C 84.800 283.572,84.450 284.695,84.021 285.652 C 83.346 287.159,83.322 287.436,83.835 287.723 C 84.653 288.181,86.178 286.299,86.969 283.854 C 87.141 283.320,87.484 283.161,88.174 283.293 C 89.093 283.469,89.110 283.434,88.543 282.569 C 87.638 281.189,85.697 280.612,85.755 281.740 M193.033 282.257 C 192.895 282.619,192.830 282.958,192.891 283.011 C 193.156 283.244,194.800 282.385,194.800 282.013 C 194.800 281.338,193.307 281.544,193.033 282.257 M207.025 282.428 C 207.857 283.346,208.000 283.379,208.000 282.647 C 208.000 282.342,207.623 281.995,207.163 281.874 C 206.360 281.664,206.355 281.687,207.025 282.428 M82.239 289.477 C 82.113 289.875,81.992 290.380,81.971 290.600 C 81.949 290.820,81.729 291.245,81.480 291.544 C 81.232 291.844,80.972 292.515,80.902 293.036 C 80.724 294.366,82.237 293.785,83.139 292.177 C 83.503 291.529,83.953 290.888,84.139 290.752 C 84.326 290.616,84.414 290.166,84.335 289.752 C 84.142 288.739,82.540 288.529,82.239 289.477 M80.248 294.581 C 80.352 294.851,80.158 295.303,79.818 295.585 C 79.478 295.867,79.200 296.400,79.200 296.769 C 79.200 297.138,79.000 297.640,78.755 297.885 C 78.191 298.449,78.636 299.203,79.524 299.189 C 81.208 299.162,82.372 294.695,80.802 294.285 C 80.326 294.160,80.127 294.267,80.248 294.581 M97.913 296.233 C 98.157 296.691,98.666 297.321,99.044 297.633 C 99.669 298.149,99.691 298.125,99.287 297.367 C 99.043 296.909,98.534 296.279,98.156 295.967 C 97.531 295.451,97.509 295.475,97.913 296.233 M77.679 300.872 C 76.240 303.200,75.915 304.393,76.643 304.672 C 78.026 305.202,80.162 301.191,79.076 300.105 C 78.582 299.611,78.395 299.714,77.679 300.872 M101.913 301.833 C 102.157 302.291,102.666 302.921,103.044 303.233 C 103.669 303.749,103.691 303.725,103.287 302.967 C 103.043 302.509,102.534 301.879,102.156 301.567 C 101.531 301.051,101.509 301.075,101.913 301.833 M75.600 306.000 C 75.600 306.440,75.420 306.800,75.200 306.800 C 74.980 306.800,74.800 307.160,74.800 307.600 C 74.800 308.040,74.620 308.400,74.400 308.400 C 74.180 308.400,74.000 308.951,74.000 309.624 C 74.000 310.337,73.833 310.744,73.600 310.600 C 73.372 310.459,73.200 310.804,73.200 311.400 C 73.200 311.996,73.028 312.341,72.800 312.200 C 72.573 312.060,72.400 312.396,72.400 312.976 C 72.400 313.539,72.220 314.000,72.000 314.000 C 71.780 314.000,71.600 314.525,71.600 315.167 C 71.600 315.808,71.465 316.393,71.300 316.467 C 70.856 316.664,69.198 320.101,69.199 320.820 C 69.200 321.161,69.035 321.611,68.833 321.820 C 68.632 322.029,68.407 322.560,68.333 323.000 C 68.260 323.440,67.885 324.149,67.500 324.575 C 67.115 325.002,66.800 325.596,66.800 325.895 C 66.800 326.195,66.494 327.016,66.121 327.720 C 65.467 328.953,65.395 329.171,65.261 330.324 C 65.227 330.612,65.039 330.748,64.843 330.626 C 64.477 330.400,63.909 331.969,63.839 333.400 C 63.770 334.812,64.567 334.589,65.787 332.856 C 66.789 331.430,66.899 331.050,66.492 330.398 C 66.083 329.745,66.165 329.471,67.026 328.611 C 68.282 327.354,69.579 324.568,69.591 323.100 C 69.596 322.495,69.765 322.000,69.966 322.000 C 70.505 322.000,72.400 318.441,72.400 317.428 C 72.400 316.949,72.954 315.684,73.630 314.616 C 74.328 313.516,74.777 312.354,74.666 311.931 C 74.559 311.521,74.725 310.932,75.036 310.622 C 75.346 310.311,75.600 309.941,75.600 309.800 C 75.600 309.659,75.870 309.273,76.199 308.943 C 77.069 308.074,77.369 306.486,76.796 305.795 C 76.108 304.966,75.600 305.053,75.600 306.000 M109.200 311.938 C 109.200 312.124,109.588 312.619,110.062 313.038 L 110.924 313.800 110.216 312.700 C 109.486 311.566,109.200 311.351,109.200 311.938 M130.800 313.800 C 130.800 314.350,130.941 314.800,131.113 314.800 C 131.285 314.800,131.463 314.350,131.508 313.800 C 131.554 313.250,131.413 312.800,131.196 312.800 C 130.978 312.800,130.800 313.250,130.800 313.800 M127.600 318.000 C 127.600 318.440,127.759 318.800,127.953 318.800 C 128.148 318.800,128.401 318.440,128.516 318.000 C 128.652 317.480,128.528 317.200,128.163 317.200 C 127.853 317.200,127.600 317.560,127.600 318.000 M272.400 318.281 C 272.400 318.743,273.535 319.809,273.758 319.557 C 273.834 319.471,273.560 319.054,273.148 318.630 C 272.737 318.207,272.400 318.049,272.400 318.281 M116.364 321.933 C 116.580 322.336,117.074 322.921,117.463 323.233 C 117.964 323.635,117.904 323.422,117.257 322.500 C 116.269 321.091,115.731 320.749,116.364 321.933 M275.600 322.538 C 275.600 322.834,275.960 323.402,276.400 323.800 C 276.840 324.198,277.200 324.335,277.200 324.105 C 277.200 323.874,276.933 323.583,276.607 323.458 C 276.269 323.328,276.115 322.965,276.250 322.615 C 276.379 322.277,276.286 322.000,276.043 322.000 C 275.799 322.000,275.600 322.242,275.600 322.538 M123.600 323.824 C 123.600 324.404,123.773 324.740,124.000 324.600 C 124.220 324.464,124.400 324.003,124.400 323.576 C 124.400 323.149,124.220 322.800,124.000 322.800 C 123.780 322.800,123.600 323.261,123.600 323.824 M120.132 327.856 C 120.250 328.587,120.179 329.289,119.974 329.416 C 119.413 329.763,119.524 330.892,120.100 330.700 C 120.375 330.608,120.600 330.278,120.600 329.967 C 120.600 329.655,120.893 329.181,121.250 328.912 C 122.498 327.976,122.430 326.895,121.110 326.702 C 119.956 326.532,119.923 326.571,120.132 327.856 M118.178 332.835 C 118.031 333.074,118.086 333.446,118.301 333.661 C 118.557 333.917,118.768 333.766,118.909 333.226 C 119.136 332.358,118.638 332.091,118.178 332.835 M117.360 334.560 C 117.214 334.942,117.292 335.452,117.534 335.694 C 117.854 336.014,118.046 335.945,118.240 335.440 C 118.386 335.058,118.308 334.548,118.066 334.306 C 117.746 333.986,117.554 334.055,117.360 334.560 M62.340 335.200 C 62.307 335.420,62.262 335.825,62.240 336.100 C 62.218 336.375,61.973 336.840,61.696 337.132 C 61.419 337.425,61.285 337.815,61.399 337.998 C 61.512 338.182,61.405 338.398,61.160 338.480 C 60.915 338.562,60.685 339.216,60.649 339.934 C 60.613 340.652,60.393 341.365,60.161 341.520 C 58.782 342.433,57.938 346.000,59.100 345.999 C 60.070 345.998,62.135 342.655,61.806 341.619 C 61.632 341.071,61.870 340.473,62.560 339.730 C 64.222 337.938,64.641 336.529,63.791 335.590 C 63.011 334.728,62.434 334.573,62.340 335.200 M116.541 335.926 C 115.636 336.514,115.158 337.974,115.600 338.800 C 116.145 339.819,116.800 339.832,116.800 338.824 C 116.800 338.397,116.980 337.936,117.200 337.800 C 117.677 337.505,117.734 336.130,117.281 335.850 C 117.105 335.742,116.772 335.776,116.541 335.926 M115.200 340.200 C 115.200 340.530,115.380 340.800,115.600 340.800 C 115.820 340.800,116.000 340.530,116.000 340.200 C 116.000 339.870,115.820 339.600,115.600 339.600 C 115.380 339.600,115.200 339.870,115.200 340.200 M114.077 342.830 C 114.156 343.067,114.391 343.260,114.600 343.260 C 114.809 343.260,115.044 343.067,115.123 342.830 C 115.202 342.594,114.967 342.400,114.600 342.400 C 114.233 342.400,113.998 342.594,114.077 342.830 M113.326 344.900 C 111.966 347.014,111.461 349.521,112.500 348.993 C 112.775 348.853,112.581 349.108,112.069 349.558 C 111.235 350.293,111.198 350.461,111.705 351.186 C 112.359 352.119,112.800 351.865,112.800 350.557 C 112.800 350.057,112.980 349.536,113.200 349.400 C 113.420 349.264,113.600 348.634,113.600 348.000 C 113.600 347.366,113.780 346.736,114.000 346.600 C 114.507 346.287,114.527 344.400,114.024 344.400 C 113.817 344.400,113.503 344.625,113.326 344.900 M57.754 346.576 C 57.635 346.885,57.481 347.377,57.410 347.669 C 57.028 349.256,56.671 349.967,56.355 349.772 C 56.160 349.651,56.000 350.011,56.000 350.572 C 56.000 351.132,55.697 351.944,55.328 352.376 C 54.958 352.808,54.592 353.575,54.516 354.081 C 54.439 354.586,54.202 355.060,53.988 355.133 C 53.775 355.207,53.600 355.709,53.600 356.250 C 53.600 356.791,53.240 357.620,52.800 358.092 C 52.360 358.564,52.000 359.367,52.000 359.875 C 52.000 360.384,51.820 360.800,51.600 360.800 C 51.380 360.800,51.200 361.387,51.200 362.104 C 51.200 362.922,50.934 363.574,50.486 363.853 C 50.093 364.099,49.521 365.222,49.214 366.350 C 48.907 367.477,48.508 368.400,48.328 368.400 C 48.147 368.400,48.000 369.300,48.000 370.400 L 48.000 372.400 78.517 372.400 L 109.033 372.400 109.627 371.091 C 110.281 369.648,110.679 363.200,110.115 363.200 C 108.748 363.200,108.205 367.862,109.430 369.087 C 110.653 370.310,108.887 370.388,79.749 370.394 C 47.270 370.401,48.610 370.514,50.452 367.927 C 51.439 366.540,51.645 365.978,51.740 364.415 C 51.773 363.874,52.295 362.888,52.900 362.226 C 53.505 361.564,54.000 360.792,54.000 360.511 C 54.000 360.230,54.201 360.000,54.447 360.000 C 54.715 360.000,54.812 359.573,54.689 358.929 C 54.539 358.147,54.849 357.328,55.839 355.888 C 56.814 354.471,57.128 353.652,56.957 352.971 C 56.810 352.386,56.949 351.794,57.320 351.422 C 58.564 350.179,59.654 348.002,59.414 347.243 C 59.103 346.266,58.037 345.837,57.754 346.576 M110.818 353.580 C 110.327 353.891,110.319 354.101,110.766 354.936 C 111.340 356.009,111.090 356.800,110.176 356.800 C 109.411 356.800,109.392 359.849,110.152 360.610 C 110.957 361.414,111.200 360.932,111.200 358.533 C 111.200 357.360,111.345 356.400,111.522 356.400 C 111.699 356.400,111.886 355.680,111.938 354.800 C 112.035 353.159,111.833 352.939,110.818 353.580 M288.900 354.607 C 288.900 355.153,289.058 355.600,289.250 355.600 C 289.443 355.600,289.600 355.251,289.600 354.824 C 289.600 354.397,289.443 353.950,289.250 353.831 C 289.058 353.712,288.900 354.061,288.900 354.607 M289.693 358.980 C 289.649 359.519,289.789 360.070,290.006 360.204 C 290.232 360.343,290.400 359.925,290.400 359.224 C 290.400 357.771,289.810 357.568,289.693 358.980 M290.743 366.700 C 290.712 367.085,290.637 367.984,290.578 368.698 C 290.518 369.412,290.634 370.097,290.835 370.222 C 291.038 370.347,291.200 369.463,291.200 368.224 C 291.200 366.172,290.874 365.086,290.743 366.700 " stroke="none" fill="#b666ac" fill-rule="evenodd"></path></g></svg>