<svg xmlns="http://www.w3.org/2000/svg" viewBox="0 0 1600 900"><path fill="#fff" d="M0 0h1600v900H0z"/><defs><linearGradient id="a" x1="0" x2="0" y1="1" y2="0"><stop offset="0" stop-color="#0FF"/><stop offset="1" stop-color="#CF6"/></linearGradient><linearGradient id="b" x1="0" x2="0" y1="0" y2="1"><stop offset="0" stop-color="red"/><stop offset="1" stop-color="#FC0"/></linearGradient></defs><g fill="none" fill-opacity="0" stroke-miterlimit="10"><g stroke="url(#a)" stroke-width="7.92"><path stroke-width="5.924" d="m973.433 621.942-3.213-60.728 53.678 27.2z"/><circle cx="500" cy="100" r="40" stroke-width="2.64" transform="rotate(-16.8 979.423 1203.059) scale(.958)"/><path stroke-width="7.587" d="m372.597 880.697 69.467-40.106c11.075 19.181 4.508 43.714-14.682 54.793s-43.71 4.495-54.785-14.687z"/></g><g stroke="url(#b)" stroke-width="2.4"><path stroke-width="2.602" d="M672.454 421.192 649.783 475.8l43.764 39.757 22.671-54.607z"/><path stroke-width="5.28" d="m1230.425 437.992 53.583 84.433-84.433 53.583-53.583-84.433z"/><path stroke-width="1.392" d="m958.964 504.294 8.467 22.887-15.528 18.77-24.03-4.073-8.504-22.842 15.527-18.77z"/></g></g></svg>