<svg xmlns="http://www.w3.org/2000/svg" viewBox="0 0 1600 900"><path d="M0 0h1600v900H0z"/><defs><linearGradient id="a" x1="0" x2="0" y1="1" y2="0"><stop offset="0" stop-color="#005C5C"/><stop offset="1" stop-color="#627B31"/></linearGradient><linearGradient id="b" x1="0" x2="0" y1="0" y2="1"><stop offset="0" stop-color="#A50000"/><stop offset="1" stop-color="#AD8B00"/></linearGradient></defs><g fill="none" fill-opacity="0" stroke-miterlimit="10"><g stroke="url(#a)" stroke-width="8.58"><path stroke-width="6.987" d="m932.578 532.963 20.206-63.046 44.114 48.433z"/><circle cx="500" cy="100" r="40" stroke-width="2.86" transform="rotate(7.6 -562.014 -1614.44) scale(.99736)"/><path stroke-width="8.557" d="m416.019 616.313-68.407-47.9c13.226-18.888 39.263-23.486 58.16-10.254s23.473 39.265 10.247 58.154z"/></g><g stroke="url(#b)" stroke-width="2.6"><path stroke-width="2.588" d="m1121.016 360.896-27.84 46.615 34.498 41.928 27.84-46.615z"/><path stroke-width="5.72" d="m836.128 269.66 99.211-12.532 12.533 99.211-99.211 12.533z"/><path stroke-width="1.534" d="m328.006 217.018-11.997 21.732-24.774.519-12.837-21.212 11.937-21.731 24.775-.519z"/></g></g></svg>